<svg width="420" height="220" viewBox="0 0 420 220" fill="none" xmlns="http://www.w3.org/2000/svg">
<rect width="420" height="220" rx="8" fill="#1E1E2E"/>
<path d="M53.575 34.984H53.479C52.679 36.52 51.407 37.288 49.663 37.288C48.143 37.288 46.951 36.72 46.087 35.584C45.239 34.448 44.815 32.856 44.815 30.808C44.815 28.76 45.239 27.168 46.087 26.032C46.951 24.896 48.143 24.328 49.663 24.328C51.407 24.328 52.679 25.096 53.479 26.632H53.575V19.24H55.495V37H53.575V34.984ZM50.407 35.584C50.839 35.584 51.247 35.528 51.631 35.416C52.015 35.304 52.351 35.144 52.639 34.936C52.927 34.712 53.151 34.448 53.311 34.144C53.487 33.824 53.575 33.456 53.575 33.04V28.576C53.575 28.16 53.487 27.8 53.311 27.496C53.151 27.176 52.927 26.912 52.639 26.704C52.351 26.48 52.015 26.312 51.631 26.2C51.247 26.088 50.839 26.032 50.407 26.032C49.287 26.032 48.415 26.376 47.791 27.064C47.183 27.736 46.879 28.632 46.879 29.752V31.864C46.879 32.984 47.183 33.888 47.791 34.576C48.415 35.248 49.287 35.584 50.407 35.584ZM65.7336 21.88C65.1736 21.88 64.7816 21.768 64.5576 21.544C64.3336 21.304 64.2216 21.008 64.2216 20.656V20.272C64.2216 19.92 64.3336 19.632 64.5576 19.408C64.7816 19.168 65.1736 19.048 65.7336 19.048C66.2936 19.048 66.6856 19.168 66.9096 19.408C67.1336 19.632 67.2456 19.92 67.2456 20.272V20.656C67.2456 21.008 67.1336 21.304 66.9096 21.544C66.6856 21.768 66.2936 21.88 65.7336 21.88ZM60.3096 35.368H64.7736V26.248H60.3096V24.616H66.6936V35.368H70.8696V37H60.3096V35.368ZM79.7883 37.288C78.8923 37.288 78.0923 37.136 77.3883 36.832C76.7003 36.512 76.1163 36.072 75.6363 35.512C75.1563 34.952 74.7883 34.272 74.5323 33.472C74.2923 32.672 74.1723 31.784 74.1723 30.808C74.1723 29.832 74.3003 28.944 74.5563 28.144C74.8123 27.344 75.1803 26.664 75.6603 26.104C76.1403 25.528 76.7243 25.088 77.4123 24.784C78.1003 24.48 78.8843 24.328 79.7643 24.328C80.9643 24.328 81.9403 24.592 82.6923 25.12C83.4443 25.648 83.9963 26.336 84.3483 27.184L82.8123 28C82.5883 27.36 82.2123 26.864 81.6843 26.512C81.1723 26.16 80.5323 25.984 79.7643 25.984C79.2043 25.984 78.7003 26.08 78.2523 26.272C77.8203 26.448 77.4523 26.704 77.1483 27.04C76.8443 27.376 76.6123 27.776 76.4523 28.24C76.3083 28.704 76.2363 29.208 76.2363 29.752V31.864C76.2363 32.408 76.3083 32.912 76.4523 33.376C76.6123 33.84 76.8443 34.24 77.1483 34.576C77.4523 34.912 77.8283 35.176 78.2763 35.368C78.7243 35.544 79.2363 35.632 79.8123 35.632C80.6443 35.632 81.3323 35.44 81.8763 35.056C82.4203 34.672 82.8523 34.144 83.1723 33.472L84.5403 34.408C84.1723 35.24 83.5963 35.928 82.8123 36.472C82.0443 37.016 81.0363 37.288 79.7883 37.288ZM94.3469 37C93.4029 37 92.7069 36.736 92.2589 36.208C91.8269 35.68 91.6109 35 91.6109 34.168V26.248H87.4829V24.616H90.5549C90.9709 24.616 91.2589 24.536 91.4189 24.376C91.5949 24.2 91.6829 23.904 91.6829 23.488V20.248H93.5309V24.616H99.1709V26.248H93.5309V35.368H99.1709V37H94.3469ZM117.32 35.368H121.496V26.248H117.08V24.616H121.496V22.072C121.496 21.24 121.712 20.56 122.144 20.032C122.592 19.504 123.288 19.24 124.232 19.24H128.384V20.872H123.416V24.616H128.384V26.248H123.416V35.368H127.832V37H117.32V35.368ZM131.639 35.368H135.959V20.872H131.639V19.24H137.879V35.368H142.199V37H131.639V35.368ZM154.237 34.984H154.141C154.013 35.288 153.853 35.584 153.661 35.872C153.469 36.144 153.229 36.384 152.941 36.592C152.669 36.8 152.341 36.968 151.957 37.096C151.573 37.224 151.125 37.288 150.613 37.288C149.317 37.288 148.277 36.88 147.493 36.064C146.709 35.232 146.317 34.064 146.317 32.56V24.616H148.237V32.224C148.237 33.36 148.485 34.208 148.981 34.768C149.477 35.312 150.205 35.584 151.165 35.584C151.549 35.584 151.925 35.536 152.293 35.44C152.661 35.344 152.989 35.2 153.277 35.008C153.565 34.816 153.797 34.576 153.973 34.288C154.149 33.984 154.237 33.624 154.237 33.208V24.616H156.157V37H154.237V34.984ZM166.132 37.288C165.236 37.288 164.436 37.136 163.732 36.832C163.044 36.512 162.46 36.072 161.98 35.512C161.5 34.952 161.132 34.272 160.876 33.472C160.636 32.672 160.516 31.784 160.516 30.808C160.516 29.832 160.644 28.944 160.9 28.144C161.156 27.344 161.524 26.664 162.004 26.104C162.484 25.528 163.068 25.088 163.756 24.784C164.444 24.48 165.228 24.328 166.108 24.328C167.308 24.328 168.284 24.592 169.036 25.12C169.788 25.648 170.34 26.336 170.692 27.184L169.156 28C168.932 27.36 168.556 26.864 168.028 26.512C167.516 26.16 166.876 25.984 166.108 25.984C165.548 25.984 165.044 26.08 164.596 26.272C164.164 26.448 163.796 26.704 163.492 27.04C163.188 27.376 162.956 27.776 162.796 28.24C162.652 28.704 162.58 29.208 162.58 29.752V31.864C162.58 32.408 162.652 32.912 162.796 33.376C162.956 33.84 163.188 34.24 163.492 34.576C163.796 34.912 164.172 35.176 164.62 35.368C165.068 35.544 165.58 35.632 166.156 35.632C166.988 35.632 167.676 35.44 168.22 35.056C168.764 34.672 169.196 34.144 169.516 33.472L170.884 34.408C170.516 35.24 169.94 35.928 169.156 36.472C168.388 37.016 167.38 37.288 166.132 37.288ZM180.691 37C179.747 37 179.051 36.736 178.603 36.208C178.171 35.68 177.955 35 177.955 34.168V26.248H173.827V24.616H176.899C177.315 24.616 177.603 24.536 177.763 24.376C177.939 24.2 178.027 23.904 178.027 23.488V20.248H179.875V24.616H185.515V26.248H179.875V35.368H185.515V37H180.691ZM197.409 34.984H197.313C197.185 35.288 197.025 35.584 196.833 35.872C196.641 36.144 196.401 36.384 196.113 36.592C195.841 36.8 195.513 36.968 195.129 37.096C194.745 37.224 194.297 37.288 193.785 37.288C192.489 37.288 191.449 36.88 190.665 36.064C189.881 35.232 189.489 34.064 189.489 32.56V24.616H191.409V32.224C191.409 33.36 191.657 34.208 192.153 34.768C192.649 35.312 193.377 35.584 194.337 35.584C194.721 35.584 195.097 35.536 195.465 35.44C195.833 35.344 196.161 35.2 196.449 35.008C196.737 34.816 196.969 34.576 197.145 34.288C197.321 33.984 197.409 33.624 197.409 33.208V24.616H199.329V37H197.409V34.984ZM213.552 37C212.8 37 212.264 36.808 211.944 36.424C211.624 36.04 211.424 35.56 211.344 34.984H211.224C210.952 35.704 210.512 36.272 209.904 36.688C209.312 37.088 208.512 37.288 207.504 37.288C206.208 37.288 205.176 36.952 204.408 36.28C203.64 35.608 203.256 34.688 203.256 33.52C203.256 32.368 203.672 31.48 204.504 30.856C205.352 30.232 206.712 29.92 208.584 29.92H211.224V28.696C211.224 27.784 210.968 27.104 210.456 26.656C209.944 26.192 209.216 25.96 208.272 25.96C207.44 25.96 206.76 26.128 206.232 26.464C205.704 26.784 205.28 27.224 204.96 27.784L203.664 26.824C203.824 26.504 204.04 26.192 204.312 25.888C204.584 25.584 204.92 25.32 205.32 25.096C205.72 24.856 206.176 24.672 206.688 24.544C207.2 24.4 207.768 24.328 208.392 24.328C209.848 24.328 211 24.696 211.848 25.432C212.712 26.168 213.144 27.192 213.144 28.504V35.32H214.872V37H213.552ZM207.84 35.68C208.336 35.68 208.784 35.624 209.184 35.512C209.6 35.384 209.96 35.224 210.264 35.032C210.568 34.824 210.8 34.584 210.96 34.312C211.136 34.024 211.224 33.72 211.224 33.4V31.36H208.584C207.432 31.36 206.592 31.52 206.064 31.84C205.536 32.16 205.272 32.624 205.272 33.232V33.736C205.272 34.376 205.496 34.864 205.944 35.2C206.408 35.52 207.04 35.68 207.84 35.68ZM223.863 37C222.919 37 222.223 36.736 221.775 36.208C221.343 35.68 221.127 35 221.127 34.168V26.248H216.999V24.616H220.071C220.487 24.616 220.775 24.536 220.935 24.376C221.111 24.2 221.199 23.904 221.199 23.488V20.248H223.047V24.616H228.687V26.248H223.047V35.368H228.687V37H223.863ZM238.421 21.88C237.861 21.88 237.469 21.768 237.245 21.544C237.021 21.304 236.909 21.008 236.909 20.656V20.272C236.909 19.92 237.021 19.632 237.245 19.408C237.469 19.168 237.861 19.048 238.421 19.048C238.981 19.048 239.373 19.168 239.597 19.408C239.821 19.632 239.933 19.92 239.933 20.272V20.656C239.933 21.008 239.821 21.304 239.597 21.544C239.373 21.768 238.981 21.88 238.421 21.88ZM232.997 35.368H237.461V26.248H232.997V24.616H239.381V35.368H243.557V37H232.997V35.368ZM247.196 37V24.616H249.116V26.632H249.212C249.34 26.328 249.5 26.04 249.692 25.768C249.884 25.48 250.116 25.232 250.388 25.024C250.676 24.816 251.012 24.648 251.396 24.52C251.78 24.392 252.228 24.328 252.74 24.328C254.036 24.328 255.076 24.744 255.86 25.576C256.644 26.392 257.036 27.552 257.036 29.056V37H255.116V29.392C255.116 28.256 254.868 27.416 254.372 26.872C253.876 26.312 253.148 26.032 252.188 26.032C251.804 26.032 251.428 26.08 251.06 26.176C250.692 26.272 250.364 26.416 250.076 26.608C249.788 26.8 249.556 27.048 249.38 27.352C249.204 27.656 249.116 28.008 249.116 28.408V37H247.196ZM272.698 38.416C272.698 39.664 272.178 40.584 271.138 41.176C270.098 41.784 268.538 42.088 266.458 42.088C264.458 42.088 263.018 41.824 262.138 41.296C261.274 40.768 260.842 40.008 260.842 39.016C260.842 38.344 261.018 37.824 261.37 37.456C261.722 37.088 262.218 36.816 262.858 36.64V36.352C262.506 36.176 262.234 35.952 262.042 35.68C261.85 35.408 261.754 35.064 261.754 34.648C261.754 34.008 261.962 33.528 262.378 33.208C262.81 32.888 263.346 32.648 263.986 32.488V32.392C263.218 32.056 262.618 31.56 262.186 30.904C261.77 30.248 261.562 29.48 261.562 28.6C261.562 27.976 261.674 27.4 261.898 26.872C262.122 26.344 262.442 25.896 262.858 25.528C263.29 25.144 263.802 24.848 264.394 24.64C264.986 24.432 265.642 24.328 266.362 24.328C267.29 24.328 268.106 24.496 268.81 24.832V24.616C268.81 24.136 268.922 23.736 269.146 23.416C269.37 23.096 269.754 22.936 270.298 22.936H272.578V24.616H269.794V25.456C270.242 25.84 270.586 26.296 270.826 26.824C271.066 27.352 271.186 27.944 271.186 28.6C271.186 29.224 271.066 29.8 270.826 30.328C270.602 30.856 270.282 31.312 269.866 31.696C269.45 32.064 268.938 32.352 268.33 32.56C267.738 32.768 267.082 32.872 266.362 32.872C266.154 32.872 265.954 32.864 265.762 32.848C265.57 32.832 265.378 32.808 265.186 32.776C264.994 32.808 264.794 32.864 264.586 32.944C264.378 33.008 264.186 33.104 264.01 33.232C263.834 33.344 263.69 33.48 263.578 33.64C263.466 33.8 263.41 33.984 263.41 34.192C263.41 34.56 263.594 34.808 263.962 34.936C264.33 35.048 264.81 35.104 265.402 35.104H268.138C269.738 35.104 270.898 35.408 271.618 36.016C272.338 36.608 272.698 37.408 272.698 38.416ZM270.898 38.512C270.898 38.016 270.698 37.616 270.298 37.312C269.898 37.024 269.202 36.88 268.21 36.88H263.914C263.082 37.216 262.666 37.776 262.666 38.56C262.666 39.104 262.882 39.568 263.314 39.952C263.746 40.352 264.466 40.552 265.474 40.552H267.346C268.466 40.552 269.338 40.376 269.962 40.024C270.586 39.688 270.898 39.184 270.898 38.512ZM266.362 31.384C267.322 31.384 268.026 31.16 268.474 30.712C268.938 30.264 269.17 29.672 269.17 28.936V28.24C269.17 27.504 268.938 26.92 268.474 26.488C268.026 26.04 267.322 25.816 266.362 25.816C265.402 25.816 264.698 26.04 264.25 26.488C263.802 26.92 263.578 27.504 263.578 28.24V28.936C263.578 29.672 263.802 30.264 264.25 30.712C264.698 31.16 265.402 31.384 266.362 31.384Z" fill="#A6E3A1"/>
<path d="M20.0247 23.04L32.9847 29.52L20.0247 36V23.04Z" fill="#B4BEFE"/>
<path d="M30.1211 102.28C29.2278 102.28 28.5944 102.08 28.2211 101.68C27.8611 101.28 27.6811 100.787 27.6811 100.2V99.64C27.6811 99.0533 27.8611 98.56 28.2211 98.16C28.5944 97.76 29.2278 97.56 30.1211 97.56C31.0144 97.56 31.6411 97.76 32.0011 98.16C32.3744 98.56 32.5611 99.0533 32.5611 99.64V100.2C32.5611 100.787 32.3744 101.28 32.0011 101.68C31.6411 102.08 31.0144 102.28 30.1211 102.28ZM51.9572 93.5V106H50.2772V93.5H45.6172V92.04H56.6172V93.5H51.9572ZM63.1094 106.24C62.3894 106.24 61.736 106.113 61.1494 105.86C60.576 105.607 60.0827 105.247 59.6694 104.78C59.2694 104.3 58.9627 103.733 58.7494 103.08C58.536 102.413 58.4294 101.667 58.4294 100.84C58.4294 100.027 58.536 99.2867 58.7494 98.62C58.9627 97.9533 59.2694 97.3867 59.6694 96.92C60.0827 96.44 60.576 96.0733 61.1494 95.82C61.736 95.5667 62.3894 95.44 63.1094 95.44C63.8294 95.44 64.476 95.5667 65.0494 95.82C65.636 96.0733 66.1294 96.44 66.5294 96.92C66.9427 97.3867 67.256 97.9533 67.4694 98.62C67.6827 99.2867 67.7894 100.027 67.7894 100.84C67.7894 101.667 67.6827 102.413 67.4694 103.08C67.256 103.733 66.9427 104.3 66.5294 104.78C66.1294 105.247 65.636 105.607 65.0494 105.86C64.476 106.113 63.8294 106.24 63.1094 106.24ZM63.1094 104.86C64.0027 104.86 64.7227 104.593 65.2694 104.06C65.816 103.527 66.0894 102.7 66.0894 101.58V100.1C66.0894 98.98 65.816 98.1533 65.2694 97.62C64.7227 97.0867 64.0027 96.82 63.1094 96.82C62.216 96.82 61.496 97.0867 60.9494 97.62C60.4027 98.1533 60.1294 98.98 60.1294 100.1V101.58C60.1294 102.7 60.4027 103.527 60.9494 104.06C61.496 104.593 62.216 104.86 63.1094 104.86ZM86.0738 106L82.3738 95.68H83.9938L85.4738 100L87.0738 104.66H87.1538L88.7538 100L90.2338 95.68H91.8138L88.1138 106H86.0738ZM102.986 106C102.359 106 101.913 105.84 101.646 105.52C101.379 105.2 101.213 104.8 101.146 104.32H101.046C100.819 104.92 100.453 105.393 99.9459 105.74C99.4526 106.073 98.7859 106.24 97.9459 106.24C96.8659 106.24 96.0059 105.96 95.3659 105.4C94.7259 104.84 94.4059 104.073 94.4059 103.1C94.4059 102.14 94.7526 101.4 95.4459 100.88C96.1526 100.36 97.2859 100.1 98.8459 100.1H101.046V99.08C101.046 98.32 100.833 97.7533 100.406 97.38C99.9793 96.9933 99.3726 96.8 98.5859 96.8C97.8926 96.8 97.3259 96.94 96.8859 97.22C96.4459 97.4867 96.0926 97.8533 95.8259 98.32L94.7459 97.52C94.8793 97.2533 95.0593 96.9933 95.2859 96.74C95.5126 96.4867 95.7926 96.2667 96.1259 96.08C96.4593 95.88 96.8393 95.7267 97.2659 95.62C97.6926 95.5 98.1659 95.44 98.6859 95.44C99.8993 95.44 100.859 95.7467 101.566 96.36C102.286 96.9733 102.646 97.8267 102.646 98.92V104.6H104.086V106H102.986ZM98.2259 104.9C98.6393 104.9 99.0126 104.853 99.3459 104.76C99.6926 104.653 99.9926 104.52 100.246 104.36C100.499 104.187 100.693 103.987 100.826 103.76C100.973 103.52 101.046 103.267 101.046 103V101.3H98.8459C97.8859 101.3 97.1859 101.433 96.7459 101.7C96.3059 101.967 96.0859 102.353 96.0859 102.86V103.28C96.0859 103.813 96.2726 104.22 96.6459 104.5C97.0326 104.767 97.5593 104.9 98.2259 104.9ZM106.618 104.64H109.638V97.04H106.618V95.68H111.238V98.28H111.338C111.551 97.4667 111.951 96.8333 112.538 96.38C113.138 95.9133 113.898 95.68 114.818 95.68H116.258V97.28H114.318C113.398 97.28 112.651 97.5467 112.078 98.08C111.518 98.6133 111.238 99.3133 111.238 100.18V104.64H115.238V106H106.618V104.64ZM126.41 95.68H128.01L122.89 108.26C122.77 108.553 122.637 108.807 122.49 109.02C122.344 109.247 122.17 109.427 121.97 109.56C121.77 109.707 121.53 109.813 121.25 109.88C120.97 109.96 120.637 110 120.25 110H118.73V108.64H121.13L122.29 105.8L118.13 95.68H119.77L121.51 100L123.05 103.92H123.13L124.67 100L126.41 95.68ZM147.695 93.4C147.228 93.4 146.901 93.3067 146.715 93.12C146.528 92.92 146.435 92.6733 146.435 92.38V92.06C146.435 91.7667 146.528 91.5267 146.715 91.34C146.901 91.14 147.228 91.04 147.695 91.04C148.161 91.04 148.488 91.14 148.675 91.34C148.861 91.5267 148.955 91.7667 148.955 92.06V92.38C148.955 92.6733 148.861 92.92 148.675 93.12C148.488 93.3067 148.161 93.4 147.695 93.4ZM143.175 104.64H146.895V97.04H143.175V95.68H148.495V104.64H151.975V106H143.175V104.64ZM154.587 104.64H157.607V97.04H154.587V95.68H159.207V98.28H159.307C159.52 97.4667 159.92 96.8333 160.507 96.38C161.107 95.9133 161.867 95.68 162.787 95.68H164.227V97.28H162.287C161.367 97.28 160.62 97.5467 160.047 98.08C159.487 98.6133 159.207 99.3133 159.207 100.18V104.64H163.207V106H154.587V104.64ZM166.579 104.64H169.599V97.04H166.579V95.68H171.199V98.28H171.299C171.512 97.4667 171.912 96.8333 172.499 96.38C173.099 95.9133 173.859 95.68 174.779 95.68H176.219V97.28H174.279C173.359 97.28 172.612 97.5467 172.039 98.08C171.479 98.6133 171.199 99.3133 171.199 100.18V104.64H175.199V106H166.579V104.64ZM183.211 106.24C182.465 106.24 181.791 106.113 181.191 105.86C180.605 105.607 180.098 105.247 179.671 104.78C179.258 104.3 178.938 103.733 178.711 103.08C178.485 102.413 178.371 101.673 178.371 100.86C178.371 100.033 178.485 99.2867 178.711 98.62C178.951 97.9533 179.278 97.3867 179.691 96.92C180.105 96.44 180.598 96.0733 181.171 95.82C181.758 95.5667 182.405 95.44 183.111 95.44C183.805 95.44 184.431 95.5667 184.991 95.82C185.565 96.0733 186.051 96.4267 186.451 96.88C186.851 97.32 187.158 97.8467 187.371 98.46C187.585 99.0733 187.691 99.7467 187.691 100.48V101.24H180.051V101.72C180.051 102.173 180.125 102.593 180.271 102.98C180.418 103.367 180.625 103.7 180.891 103.98C181.171 104.26 181.505 104.48 181.891 104.64C182.291 104.787 182.731 104.86 183.211 104.86C183.905 104.86 184.505 104.7 185.011 104.38C185.518 104.06 185.905 103.62 186.171 103.06L187.351 103.86C187.045 104.553 186.531 105.127 185.811 105.58C185.105 106.02 184.238 106.24 183.211 106.24ZM183.111 96.76C182.671 96.76 182.265 96.84 181.891 97C181.518 97.16 181.191 97.38 180.911 97.66C180.645 97.94 180.431 98.2733 180.271 98.66C180.125 99.0333 180.051 99.4467 180.051 99.9V100.04H185.971V99.82C185.971 99.3667 185.898 98.9533 185.751 98.58C185.618 98.2067 185.425 97.8867 185.171 97.62C184.931 97.34 184.631 97.1267 184.271 96.98C183.925 96.8333 183.538 96.76 183.111 96.76ZM200.243 107.18C200.243 108.22 199.81 108.987 198.943 109.48C198.077 109.987 196.777 110.24 195.043 110.24C193.377 110.24 192.177 110.02 191.443 109.58C190.723 109.14 190.363 108.507 190.363 107.68C190.363 107.12 190.51 106.687 190.803 106.38C191.097 106.073 191.51 105.847 192.043 105.7V105.46C191.75 105.313 191.523 105.127 191.363 104.9C191.203 104.673 191.123 104.387 191.123 104.04C191.123 103.507 191.297 103.107 191.643 102.84C192.003 102.573 192.45 102.373 192.983 102.24V102.16C192.343 101.88 191.843 101.467 191.483 100.92C191.137 100.373 190.963 99.7333 190.963 99C190.963 98.48 191.057 98 191.243 97.56C191.43 97.12 191.697 96.7467 192.043 96.44C192.403 96.12 192.83 95.8733 193.323 95.7C193.817 95.5267 194.363 95.44 194.963 95.44C195.737 95.44 196.417 95.58 197.003 95.86V95.68C197.003 95.28 197.097 94.9467 197.283 94.68C197.47 94.4133 197.79 94.28 198.243 94.28H200.143V95.68H197.823V96.38C198.197 96.7 198.483 97.08 198.683 97.52C198.883 97.96 198.983 98.4533 198.983 99C198.983 99.52 198.883 100 198.683 100.44C198.497 100.88 198.23 101.26 197.883 101.58C197.537 101.887 197.11 102.127 196.603 102.3C196.11 102.473 195.563 102.56 194.963 102.56C194.79 102.56 194.623 102.553 194.463 102.54C194.303 102.527 194.143 102.507 193.983 102.48C193.823 102.507 193.657 102.553 193.483 102.62C193.31 102.673 193.15 102.753 193.003 102.86C192.857 102.953 192.737 103.067 192.643 103.2C192.55 103.333 192.503 103.487 192.503 103.66C192.503 103.967 192.657 104.173 192.963 104.28C193.27 104.373 193.67 104.42 194.163 104.42H196.443C197.777 104.42 198.743 104.673 199.343 105.18C199.943 105.673 200.243 106.34 200.243 107.18ZM198.743 107.26C198.743 106.847 198.577 106.513 198.243 106.26C197.91 106.02 197.33 105.9 196.503 105.9H192.923C192.23 106.18 191.883 106.647 191.883 107.3C191.883 107.753 192.063 108.14 192.423 108.46C192.783 108.793 193.383 108.96 194.223 108.96H195.783C196.717 108.96 197.443 108.813 197.963 108.52C198.483 108.24 198.743 107.82 198.743 107.26ZM194.963 101.32C195.763 101.32 196.35 101.133 196.723 100.76C197.11 100.387 197.303 99.8933 197.303 99.28V98.7C197.303 98.0867 197.11 97.6 196.723 97.24C196.35 96.8667 195.763 96.68 194.963 96.68C194.163 96.68 193.577 96.8667 193.203 97.24C192.83 97.6 192.643 98.0867 192.643 98.7V99.28C192.643 99.8933 192.83 100.387 193.203 100.76C193.577 101.133 194.163 101.32 194.963 101.32ZM209.456 104.32H209.376C209.269 104.573 209.136 104.82 208.976 105.06C208.816 105.287 208.616 105.487 208.376 105.66C208.149 105.833 207.876 105.973 207.556 106.08C207.236 106.187 206.862 106.24 206.436 106.24C205.356 106.24 204.489 105.9 203.836 105.22C203.182 104.527 202.856 103.553 202.856 102.3V95.68H204.456V102.02C204.456 102.967 204.662 103.673 205.076 104.14C205.489 104.593 206.096 104.82 206.896 104.82C207.216 104.82 207.529 104.78 207.836 104.7C208.142 104.62 208.416 104.5 208.656 104.34C208.896 104.18 209.089 103.98 209.236 103.74C209.382 103.487 209.456 103.187 209.456 102.84V95.68H211.056V106H209.456V104.32ZM214.608 104.64H218.208V92.56H214.608V91.2H219.808V104.64H223.408V106H214.608V104.64ZM234.9 106C234.273 106 233.827 105.84 233.56 105.52C233.293 105.2 233.127 104.8 233.06 104.32H232.96C232.733 104.92 232.367 105.393 231.86 105.74C231.367 106.073 230.7 106.24 229.86 106.24C228.78 106.24 227.92 105.96 227.28 105.4C226.64 104.84 226.32 104.073 226.32 103.1C226.32 102.14 226.667 101.4 227.36 100.88C228.067 100.36 229.2 100.1 230.76 100.1H232.96V99.08C232.96 98.32 232.747 97.7533 232.32 97.38C231.893 96.9933 231.287 96.8 230.5 96.8C229.807 96.8 229.24 96.94 228.8 97.22C228.36 97.4867 228.007 97.8533 227.74 98.32L226.66 97.52C226.793 97.2533 226.973 96.9933 227.2 96.74C227.427 96.4867 227.707 96.2667 228.04 96.08C228.373 95.88 228.753 95.7267 229.18 95.62C229.607 95.5 230.08 95.44 230.6 95.44C231.813 95.44 232.773 95.7467 233.48 96.36C234.2 96.9733 234.56 97.8267 234.56 98.92V104.6H236V106H234.9ZM230.14 104.9C230.553 104.9 230.927 104.853 231.26 104.76C231.607 104.653 231.907 104.52 232.16 104.36C232.413 104.187 232.607 103.987 232.74 103.76C232.887 103.52 232.96 103.267 232.96 103V101.3H230.76C229.8 101.3 229.1 101.433 228.66 101.7C228.22 101.967 228 102.353 228 102.86V103.28C228 103.813 228.187 104.22 228.56 104.5C228.947 104.767 229.473 104.9 230.14 104.9ZM238.532 104.64H241.552V97.04H238.532V95.68H243.152V98.28H243.252C243.466 97.4667 243.866 96.8333 244.452 96.38C245.052 95.9133 245.812 95.68 246.732 95.68H248.172V97.28H246.232C245.312 97.28 244.566 97.5467 243.992 98.08C243.432 98.6133 243.152 99.3133 243.152 100.18V104.64H247.152V106H238.532V104.64ZM250.584 104.64H254.184V92.56H250.584V91.2H255.784V104.64H259.384V106H250.584V104.64ZM270.317 95.68H271.917L266.797 108.26C266.677 108.553 266.543 108.807 266.397 109.02C266.25 109.247 266.077 109.427 265.877 109.56C265.677 109.707 265.437 109.813 265.157 109.88C264.877 109.96 264.543 110 264.157 110H262.637V108.64H265.037L266.197 105.8L262.037 95.68H263.677L265.417 100L266.957 103.92H267.037L268.577 100L270.317 95.68ZM278.109 103.28H280.689L278.389 108.82H277.049L278.109 103.28ZM278.969 98.26C278.422 98.26 278.035 98.1467 277.809 97.92C277.595 97.6933 277.489 97.4067 277.489 97.06V96.7C277.489 96.3533 277.595 96.0667 277.809 95.84C278.035 95.6133 278.422 95.5 278.969 95.5C279.515 95.5 279.895 95.6133 280.109 95.84C280.335 96.0667 280.449 96.3533 280.449 96.7V97.06C280.449 97.4067 280.335 97.6933 280.109 97.92C279.895 98.1467 279.515 98.26 278.969 98.26ZM303.453 106C302.666 106 302.086 105.78 301.713 105.34C301.353 104.9 301.173 104.333 301.173 103.64V97.04H297.733V95.68H300.293C300.64 95.68 300.88 95.6133 301.013 95.48C301.16 95.3333 301.233 95.0867 301.233 94.74V92.04H302.773V95.68H307.473V97.04H302.773V104.64H307.473V106H303.453ZM314.945 106.24C314.225 106.24 313.572 106.113 312.985 105.86C312.412 105.607 311.919 105.247 311.505 104.78C311.105 104.3 310.799 103.733 310.585 103.08C310.372 102.413 310.265 101.667 310.265 100.84C310.265 100.027 310.372 99.2867 310.585 98.62C310.799 97.9533 311.105 97.3867 311.505 96.92C311.919 96.44 312.412 96.0733 312.985 95.82C313.572 95.5667 314.225 95.44 314.945 95.44C315.665 95.44 316.312 95.5667 316.885 95.82C317.472 96.0733 317.965 96.44 318.365 96.92C318.779 97.3867 319.092 97.9533 319.305 98.62C319.519 99.2867 319.625 100.027 319.625 100.84C319.625 101.667 319.519 102.413 319.305 103.08C319.092 103.733 318.779 104.3 318.365 104.78C317.965 105.247 317.472 105.607 316.885 105.86C316.312 106.113 315.665 106.24 314.945 106.24ZM314.945 104.86C315.839 104.86 316.559 104.593 317.105 104.06C317.652 103.527 317.925 102.7 317.925 101.58V100.1C317.925 98.98 317.652 98.1533 317.105 97.62C316.559 97.0867 315.839 96.82 314.945 96.82C314.052 96.82 313.332 97.0867 312.785 97.62C312.239 98.1533 311.965 98.98 311.965 100.1V101.58C311.965 102.7 312.239 103.527 312.785 104.06C313.332 104.593 314.052 104.86 314.945 104.86ZM339.05 106.24C337.97 106.24 337.036 106.06 336.25 105.7C335.476 105.327 334.816 104.833 334.27 104.22L335.35 103.28C335.843 103.8 336.383 104.2 336.97 104.48C337.556 104.76 338.263 104.9 339.09 104.9C339.89 104.9 340.543 104.76 341.05 104.48C341.57 104.187 341.83 103.733 341.83 103.12C341.83 102.853 341.776 102.633 341.67 102.46C341.576 102.273 341.443 102.127 341.27 102.02C341.096 101.913 340.903 101.833 340.69 101.78C340.476 101.713 340.25 101.66 340.01 101.62L338.39 101.38C338.03 101.327 337.636 101.253 337.21 101.16C336.796 101.067 336.416 100.92 336.07 100.72C335.723 100.507 335.43 100.227 335.19 99.88C334.963 99.5333 334.85 99.08 334.85 98.52C334.85 98 334.95 97.5533 335.15 97.18C335.363 96.7933 335.656 96.4733 336.03 96.22C336.403 95.9533 336.843 95.76 337.35 95.64C337.856 95.5067 338.41 95.44 339.01 95.44C339.943 95.44 340.75 95.5867 341.43 95.88C342.123 96.1733 342.716 96.58 343.21 97.1L342.17 98.08C342.05 97.9333 341.896 97.7867 341.71 97.64C341.536 97.48 341.316 97.34 341.05 97.22C340.796 97.0867 340.496 96.98 340.15 96.9C339.803 96.82 339.403 96.78 338.95 96.78C338.136 96.78 337.51 96.92 337.07 97.2C336.643 97.48 336.43 97.8867 336.43 98.42C336.43 98.6867 336.476 98.9133 336.57 99.1C336.676 99.2733 336.816 99.4133 336.99 99.52C337.163 99.6267 337.356 99.7133 337.57 99.78C337.796 99.8333 338.023 99.88 338.25 99.92L339.87 100.16C340.243 100.213 340.636 100.287 341.05 100.38C341.463 100.473 341.843 100.627 342.19 100.84C342.536 101.04 342.823 101.313 343.05 101.66C343.29 102.007 343.41 102.46 343.41 103.02C343.41 104.047 343.01 104.84 342.21 105.4C341.423 105.96 340.37 106.24 339.05 106.24ZM345.522 95.68H346.942L348.122 104.6H348.302L350.062 95.68H351.822L353.582 104.6H353.762L354.942 95.68H356.322L354.742 106H352.662L351.022 97.36H350.862L349.182 106H347.102L345.522 95.68ZM363.554 93.4C363.087 93.4 362.761 93.3067 362.574 93.12C362.387 92.92 362.294 92.6733 362.294 92.38V92.06C362.294 91.7667 362.387 91.5267 362.574 91.34C362.761 91.14 363.087 91.04 363.554 91.04C364.021 91.04 364.347 91.14 364.534 91.34C364.721 91.5267 364.814 91.7667 364.814 92.06V92.38C364.814 92.6733 364.721 92.92 364.534 93.12C364.347 93.3067 364.021 93.4 363.554 93.4ZM359.034 104.64H362.754V97.04H359.034V95.68H364.354V104.64H367.834V106H359.034V104.64ZM370.866 106V95.68H372.466V97.36H372.546C372.653 97.1067 372.786 96.8667 372.946 96.64C373.106 96.4 373.3 96.1933 373.526 96.02C373.766 95.8467 374.046 95.7067 374.366 95.6C374.686 95.4933 375.06 95.44 375.486 95.44C376.566 95.44 377.433 95.7867 378.086 96.48C378.74 97.16 379.066 98.1267 379.066 99.38V106H377.466V99.66C377.466 98.7133 377.26 98.0133 376.846 97.56C376.433 97.0933 375.826 96.86 375.026 96.86C374.706 96.86 374.393 96.9 374.086 96.98C373.78 97.06 373.506 97.18 373.266 97.34C373.026 97.5 372.833 97.7067 372.686 97.96C372.54 98.2133 372.466 98.5067 372.466 98.84V106H370.866ZM392.118 107.18C392.118 108.22 391.685 108.987 390.818 109.48C389.952 109.987 388.652 110.24 386.918 110.24C385.252 110.24 384.052 110.02 383.318 109.58C382.598 109.14 382.238 108.507 382.238 107.68C382.238 107.12 382.385 106.687 382.678 106.38C382.972 106.073 383.385 105.847 383.918 105.7V105.46C383.625 105.313 383.398 105.127 383.238 104.9C383.078 104.673 382.998 104.387 382.998 104.04C382.998 103.507 383.172 103.107 383.518 102.84C383.878 102.573 384.325 102.373 384.858 102.24V102.16C384.218 101.88 383.718 101.467 383.358 100.92C383.012 100.373 382.838 99.7333 382.838 99C382.838 98.48 382.932 98 383.118 97.56C383.305 97.12 383.572 96.7467 383.918 96.44C384.278 96.12 384.705 95.8733 385.198 95.7C385.692 95.5267 386.238 95.44 386.838 95.44C387.612 95.44 388.292 95.58 388.878 95.86V95.68C388.878 95.28 388.972 94.9467 389.158 94.68C389.345 94.4133 389.665 94.28 390.118 94.28H392.018V95.68H389.698V96.38C390.072 96.7 390.358 97.08 390.558 97.52C390.758 97.96 390.858 98.4533 390.858 99C390.858 99.52 390.758 100 390.558 100.44C390.372 100.88 390.105 101.26 389.758 101.58C389.412 101.887 388.985 102.127 388.478 102.3C387.985 102.473 387.438 102.56 386.838 102.56C386.665 102.56 386.498 102.553 386.338 102.54C386.178 102.527 386.018 102.507 385.858 102.48C385.698 102.507 385.532 102.553 385.358 102.62C385.185 102.673 385.025 102.753 384.878 102.86C384.732 102.953 384.612 103.067 384.518 103.2C384.425 103.333 384.378 103.487 384.378 103.66C384.378 103.967 384.532 104.173 384.838 104.28C385.145 104.373 385.545 104.42 386.038 104.42H388.318C389.652 104.42 390.618 104.673 391.218 105.18C391.818 105.673 392.118 106.34 392.118 107.18ZM390.618 107.26C390.618 106.847 390.452 106.513 390.118 106.26C389.785 106.02 389.205 105.9 388.378 105.9H384.798C384.105 106.18 383.758 106.647 383.758 107.3C383.758 107.753 383.938 108.14 384.298 108.46C384.658 108.793 385.258 108.96 386.098 108.96H387.658C388.592 108.96 389.318 108.813 389.838 108.52C390.358 108.24 390.618 107.82 390.618 107.26ZM386.838 101.32C387.638 101.32 388.225 101.133 388.598 100.76C388.985 100.387 389.178 99.8933 389.178 99.28V98.7C389.178 98.0867 388.985 97.6 388.598 97.24C388.225 96.8667 387.638 96.68 386.838 96.68C386.038 96.68 385.452 96.8667 385.078 97.24C384.705 97.6 384.518 98.0867 384.518 98.7V99.28C384.518 99.8933 384.705 100.387 385.078 100.76C385.452 101.133 386.038 101.32 386.838 101.32ZM398.891 106.18C398.344 106.18 397.957 106.067 397.731 105.84C397.517 105.613 397.411 105.327 397.411 104.98V104.62C397.411 104.273 397.517 103.987 397.731 103.76C397.957 103.533 398.344 103.42 398.891 103.42C399.437 103.42 399.817 103.533 400.031 103.76C400.257 103.987 400.371 104.273 400.371 104.62V104.98C400.371 105.327 400.257 105.613 400.031 105.84C399.817 106.067 399.437 106.18 398.891 106.18Z" fill="#CAD3F5"/>
<path d="M30.0508 128.28C29.1574 128.28 28.5241 128.08 28.1508 127.68C27.7908 127.28 27.6108 126.787 27.6108 126.2V125.64C27.6108 125.053 27.7908 124.56 28.1508 124.16C28.5241 123.76 29.1574 123.56 30.0508 123.56C30.9441 123.56 31.5708 123.76 31.9308 124.16C32.3041 124.56 32.4908 125.053 32.4908 125.64V126.2C32.4908 126.787 32.3041 127.28 31.9308 127.68C31.5708 128.08 30.9441 128.28 30.0508 128.28ZM51.8869 119.5V132H50.2069V119.5H45.5469V118.04H56.5469V119.5H51.8869ZM63.0391 132.24C62.3191 132.24 61.6657 132.113 61.0791 131.86C60.5057 131.607 60.0124 131.247 59.5991 130.78C59.1991 130.3 58.8924 129.733 58.6791 129.08C58.4657 128.413 58.3591 127.667 58.3591 126.84C58.3591 126.027 58.4657 125.287 58.6791 124.62C58.8924 123.953 59.1991 123.387 59.5991 122.92C60.0124 122.44 60.5057 122.073 61.0791 121.82C61.6657 121.567 62.3191 121.44 63.0391 121.44C63.7591 121.44 64.4057 121.567 64.9791 121.82C65.5657 122.073 66.0591 122.44 66.4591 122.92C66.8724 123.387 67.1857 123.953 67.3991 124.62C67.6124 125.287 67.7191 126.027 67.7191 126.84C67.7191 127.667 67.6124 128.413 67.3991 129.08C67.1857 129.733 66.8724 130.3 66.4591 130.78C66.0591 131.247 65.5657 131.607 64.9791 131.86C64.4057 132.113 63.7591 132.24 63.0391 132.24ZM63.0391 130.86C63.9324 130.86 64.6524 130.593 65.1991 130.06C65.7457 129.527 66.0191 128.7 66.0191 127.58V126.1C66.0191 124.98 65.7457 124.153 65.1991 123.62C64.6524 123.087 63.9324 122.82 63.0391 122.82C62.1457 122.82 61.4257 123.087 60.8791 123.62C60.3324 124.153 60.0591 124.98 60.0591 126.1V127.58C60.0591 128.7 60.3324 129.527 60.8791 130.06C61.4257 130.593 62.1457 130.86 63.0391 130.86ZM89.4634 130.32H89.3834C89.2768 130.573 89.1434 130.82 88.9834 131.06C88.8234 131.287 88.6234 131.487 88.3834 131.66C88.1568 131.833 87.8834 131.973 87.5634 132.08C87.2434 132.187 86.8701 132.24 86.4434 132.24C85.3634 132.24 84.4968 131.9 83.8434 131.22C83.1901 130.527 82.8634 129.553 82.8634 128.3V121.68H84.4634V128.02C84.4634 128.967 84.6701 129.673 85.0834 130.14C85.4968 130.593 86.1034 130.82 86.9034 130.82C87.2234 130.82 87.5368 130.78 87.8434 130.7C88.1501 130.62 88.4234 130.5 88.6634 130.34C88.9034 130.18 89.0968 129.98 89.2434 129.74C89.3901 129.487 89.4634 129.187 89.4634 128.84V121.68H91.0634V132H89.4634V130.32ZM94.9756 132V121.68H96.5756V123.36H96.6556C96.7623 123.107 96.8956 122.867 97.0556 122.64C97.2156 122.4 97.409 122.193 97.6356 122.02C97.8756 121.847 98.1556 121.707 98.4756 121.6C98.7956 121.493 99.169 121.44 99.5956 121.44C100.676 121.44 101.542 121.787 102.196 122.48C102.849 123.16 103.176 124.127 103.176 125.38V132H101.576V125.66C101.576 124.713 101.369 124.013 100.956 123.56C100.542 123.093 99.9356 122.86 99.1356 122.86C98.8156 122.86 98.5023 122.9 98.1956 122.98C97.889 123.06 97.6156 123.18 97.3756 123.34C97.1356 123.5 96.9423 123.707 96.7956 123.96C96.649 124.213 96.5756 124.507 96.5756 124.84V132H94.9756ZM113.508 130.32H113.428C112.761 131.6 111.701 132.24 110.248 132.24C108.981 132.24 107.988 131.767 107.268 130.82C106.561 129.873 106.208 128.547 106.208 126.84C106.208 125.133 106.561 123.807 107.268 122.86C107.988 121.913 108.981 121.44 110.248 121.44C111.701 121.44 112.761 122.08 113.428 123.36H113.508V117.2H115.108V132H113.508V130.32ZM110.868 130.82C111.228 130.82 111.568 130.773 111.888 130.68C112.208 130.587 112.488 130.453 112.728 130.28C112.968 130.093 113.154 129.873 113.288 129.62C113.434 129.353 113.508 129.047 113.508 128.7V124.98C113.508 124.633 113.434 124.333 113.288 124.08C113.154 123.813 112.968 123.593 112.728 123.42C112.488 123.233 112.208 123.093 111.888 123C111.568 122.907 111.228 122.86 110.868 122.86C109.934 122.86 109.208 123.147 108.688 123.72C108.181 124.28 107.928 125.027 107.928 125.96V127.72C107.928 128.653 108.181 129.407 108.688 129.98C109.208 130.54 109.934 130.82 110.868 130.82ZM125.44 130.32H125.36C125.253 130.573 125.12 130.82 124.96 131.06C124.8 131.287 124.6 131.487 124.36 131.66C124.133 131.833 123.86 131.973 123.54 132.08C123.22 132.187 122.847 132.24 122.42 132.24C121.34 132.24 120.473 131.9 119.82 131.22C119.167 130.527 118.84 129.553 118.84 128.3V121.68H120.44V128.02C120.44 128.967 120.647 129.673 121.06 130.14C121.473 130.593 122.08 130.82 122.88 130.82C123.2 130.82 123.513 130.78 123.82 130.7C124.127 130.62 124.4 130.5 124.64 130.34C124.88 130.18 125.073 129.98 125.22 129.74C125.367 129.487 125.44 129.187 125.44 128.84V121.68H127.04V132H125.44V130.32ZM130.592 130.64H134.192V118.56H130.592V117.2H135.792V130.64H139.392V132H130.592V130.64ZM150.884 132C150.258 132 149.811 131.84 149.544 131.52C149.278 131.2 149.111 130.8 149.044 130.32H148.944C148.718 130.92 148.351 131.393 147.844 131.74C147.351 132.073 146.684 132.24 145.844 132.24C144.764 132.24 143.904 131.96 143.264 131.4C142.624 130.84 142.304 130.073 142.304 129.1C142.304 128.14 142.651 127.4 143.344 126.88C144.051 126.36 145.184 126.1 146.744 126.1H148.944V125.08C148.944 124.32 148.731 123.753 148.304 123.38C147.878 122.993 147.271 122.8 146.484 122.8C145.791 122.8 145.224 122.94 144.784 123.22C144.344 123.487 143.991 123.853 143.724 124.32L142.644 123.52C142.778 123.253 142.958 122.993 143.184 122.74C143.411 122.487 143.691 122.267 144.024 122.08C144.358 121.88 144.738 121.727 145.164 121.62C145.591 121.5 146.064 121.44 146.584 121.44C147.798 121.44 148.758 121.747 149.464 122.36C150.184 122.973 150.544 123.827 150.544 124.92V130.6H151.984V132H150.884ZM146.124 130.9C146.538 130.9 146.911 130.853 147.244 130.76C147.591 130.653 147.891 130.52 148.144 130.36C148.398 130.187 148.591 129.987 148.724 129.76C148.871 129.52 148.944 129.267 148.944 129V127.3H146.744C145.784 127.3 145.084 127.433 144.644 127.7C144.204 127.967 143.984 128.353 143.984 128.86V129.28C143.984 129.813 144.171 130.22 144.544 130.5C144.931 130.767 145.458 130.9 146.124 130.9ZM159.477 132C158.69 132 158.11 131.78 157.737 131.34C157.377 130.9 157.197 130.333 157.197 129.64V123.04H153.757V121.68H156.317C156.663 121.68 156.903 121.613 157.037 121.48C157.183 121.333 157.257 121.087 157.257 120.74V118.04H158.797V121.68H163.497V123.04H158.797V130.64H163.497V132H159.477ZM171.149 132.24C170.402 132.24 169.729 132.113 169.129 131.86C168.542 131.607 168.035 131.247 167.609 130.78C167.195 130.3 166.875 129.733 166.649 129.08C166.422 128.413 166.309 127.673 166.309 126.86C166.309 126.033 166.422 125.287 166.649 124.62C166.889 123.953 167.215 123.387 167.629 122.92C168.042 122.44 168.535 122.073 169.109 121.82C169.695 121.567 170.342 121.44 171.049 121.44C171.742 121.44 172.369 121.567 172.929 121.82C173.502 122.073 173.989 122.427 174.389 122.88C174.789 123.32 175.095 123.847 175.309 124.46C175.522 125.073 175.629 125.747 175.629 126.48V127.24H167.989V127.72C167.989 128.173 168.062 128.593 168.209 128.98C168.355 129.367 168.562 129.7 168.829 129.98C169.109 130.26 169.442 130.48 169.829 130.64C170.229 130.787 170.669 130.86 171.149 130.86C171.842 130.86 172.442 130.7 172.949 130.38C173.455 130.06 173.842 129.62 174.109 129.06L175.289 129.86C174.982 130.553 174.469 131.127 173.749 131.58C173.042 132.02 172.175 132.24 171.149 132.24ZM171.049 122.76C170.609 122.76 170.202 122.84 169.829 123C169.455 123.16 169.129 123.38 168.849 123.66C168.582 123.94 168.369 124.273 168.209 124.66C168.062 125.033 167.989 125.447 167.989 125.9V126.04H173.909V125.82C173.909 125.367 173.835 124.953 173.689 124.58C173.555 124.207 173.362 123.887 173.109 123.62C172.869 123.34 172.569 123.127 172.209 122.98C171.862 122.833 171.475 122.76 171.049 122.76ZM182.961 132.18C182.414 132.18 182.028 132.067 181.801 131.84C181.588 131.613 181.481 131.327 181.481 130.98V130.62C181.481 130.273 181.588 129.987 181.801 129.76C182.028 129.533 182.414 129.42 182.961 129.42C183.508 129.42 183.888 129.533 184.101 129.76C184.328 129.987 184.441 130.273 184.441 130.62V130.98C184.441 131.327 184.328 131.613 184.101 131.84C183.888 132.067 183.508 132.18 182.961 132.18Z" fill="#CAD3F5"/>
<path d="M30.1055 154.28C29.2121 154.28 28.5788 154.08 28.2055 153.68C27.8455 153.28 27.6655 152.787 27.6655 152.2V151.64C27.6655 151.053 27.8455 150.56 28.2055 150.16C28.5788 149.76 29.2121 149.56 30.1055 149.56C30.9988 149.56 31.6255 149.76 31.9855 150.16C32.3588 150.56 32.5455 151.053 32.5455 151.64V152.2C32.5455 152.787 32.3588 153.28 31.9855 153.68C31.6255 154.08 30.9988 154.28 30.1055 154.28ZM51.9416 145.5V158H50.2616V145.5H45.6016V144.04H56.6016V145.5H51.9416ZM63.0938 158.24C62.3738 158.24 61.7204 158.113 61.1338 157.86C60.5604 157.607 60.0671 157.247 59.6538 156.78C59.2538 156.3 58.9471 155.733 58.7338 155.08C58.5204 154.413 58.4137 153.667 58.4137 152.84C58.4137 152.027 58.5204 151.287 58.7338 150.62C58.9471 149.953 59.2538 149.387 59.6538 148.92C60.0671 148.44 60.5604 148.073 61.1338 147.82C61.7204 147.567 62.3738 147.44 63.0938 147.44C63.8138 147.44 64.4604 147.567 65.0338 147.82C65.6204 148.073 66.1138 148.44 66.5138 148.92C66.9271 149.387 67.2404 149.953 67.4538 150.62C67.6671 151.287 67.7738 152.027 67.7738 152.84C67.7738 153.667 67.6671 154.413 67.4538 155.08C67.2404 155.733 66.9271 156.3 66.5138 156.78C66.1138 157.247 65.6204 157.607 65.0338 157.86C64.4604 158.113 63.8138 158.24 63.0938 158.24ZM63.0938 156.86C63.9871 156.86 64.7071 156.593 65.2538 156.06C65.8004 155.527 66.0738 154.7 66.0738 153.58V152.1C66.0738 150.98 65.8004 150.153 65.2538 149.62C64.7071 149.087 63.9871 148.82 63.0938 148.82C62.2004 148.82 61.4804 149.087 60.9338 149.62C60.3871 150.153 60.1138 150.98 60.1138 152.1V153.58C60.1138 154.7 60.3871 155.527 60.9338 156.06C61.4804 156.593 62.2004 156.86 63.0938 156.86ZM82.9781 143.2H84.5781V149.36H84.6581C85.3248 148.08 86.3848 147.44 87.8381 147.44C89.1048 147.44 90.0915 147.913 90.7981 148.86C91.5181 149.807 91.8781 151.133 91.8781 152.84C91.8781 154.547 91.5181 155.873 90.7981 156.82C90.0915 157.767 89.1048 158.24 87.8381 158.24C86.3848 158.24 85.3248 157.6 84.6581 156.32H84.5781V158H82.9781V143.2ZM87.2181 156.82C88.1515 156.82 88.8715 156.54 89.3781 155.98C89.8981 155.407 90.1581 154.653 90.1581 153.72V151.96C90.1581 151.027 89.8981 150.28 89.3781 149.72C88.8715 149.147 88.1515 148.86 87.2181 148.86C86.8581 148.86 86.5181 148.907 86.1981 149C85.8781 149.093 85.5981 149.233 85.3581 149.42C85.1181 149.593 84.9248 149.813 84.7781 150.08C84.6448 150.333 84.5781 150.633 84.5781 150.98V154.7C84.5781 155.047 84.6448 155.353 84.7781 155.62C84.9248 155.873 85.1181 156.093 85.3581 156.28C85.5981 156.453 85.8781 156.587 86.1981 156.68C86.5181 156.773 86.8581 156.82 87.2181 156.82ZM99.2503 158.24C98.5036 158.24 97.8303 158.113 97.2303 157.86C96.6436 157.607 96.137 157.247 95.7103 156.78C95.297 156.3 94.977 155.733 94.7503 155.08C94.5236 154.413 94.4103 153.673 94.4103 152.86C94.4103 152.033 94.5236 151.287 94.7503 150.62C94.9903 149.953 95.317 149.387 95.7303 148.92C96.1436 148.44 96.637 148.073 97.2103 147.82C97.797 147.567 98.4436 147.44 99.1503 147.44C99.8436 147.44 100.47 147.567 101.03 147.82C101.604 148.073 102.09 148.427 102.49 148.88C102.89 149.32 103.197 149.847 103.41 150.46C103.624 151.073 103.73 151.747 103.73 152.48V153.24H96.0903V153.72C96.0903 154.173 96.1636 154.593 96.3103 154.98C96.457 155.367 96.6636 155.7 96.9303 155.98C97.2103 156.26 97.5436 156.48 97.9303 156.64C98.3303 156.787 98.7703 156.86 99.2503 156.86C99.9436 156.86 100.544 156.7 101.05 156.38C101.557 156.06 101.944 155.62 102.21 155.06L103.39 155.86C103.084 156.553 102.57 157.127 101.85 157.58C101.144 158.02 100.277 158.24 99.2503 158.24ZM99.1503 148.76C98.7103 148.76 98.3036 148.84 97.9303 149C97.557 149.16 97.2303 149.38 96.9503 149.66C96.6836 149.94 96.4703 150.273 96.3103 150.66C96.1636 151.033 96.0903 151.447 96.0903 151.9V152.04H102.01V151.82C102.01 151.367 101.937 150.953 101.79 150.58C101.657 150.207 101.464 149.887 101.21 149.62C100.97 149.34 100.67 149.127 100.31 148.98C99.9636 148.833 99.577 148.76 99.1503 148.76ZM123.695 145.4C123.228 145.4 122.901 145.307 122.715 145.12C122.528 144.92 122.435 144.673 122.435 144.38V144.06C122.435 143.767 122.528 143.527 122.715 143.34C122.901 143.14 123.228 143.04 123.695 143.04C124.161 143.04 124.488 143.14 124.675 143.34C124.861 143.527 124.955 143.767 124.955 144.06V144.38C124.955 144.673 124.861 144.92 124.675 145.12C124.488 145.307 124.161 145.4 123.695 145.4ZM119.175 156.64H122.895V149.04H119.175V147.68H124.495V156.64H127.975V158H119.175V156.64ZM130.587 156.64H133.607V149.04H130.587V147.68H135.207V150.28H135.307C135.52 149.467 135.92 148.833 136.507 148.38C137.107 147.913 137.867 147.68 138.787 147.68H140.227V149.28H138.287C137.367 149.28 136.62 149.547 136.047 150.08C135.487 150.613 135.207 151.313 135.207 152.18V156.64H139.207V158H130.587V156.64ZM142.579 156.64H145.599V149.04H142.579V147.68H147.199V150.28H147.299C147.512 149.467 147.912 148.833 148.499 148.38C149.099 147.913 149.859 147.68 150.779 147.68H152.219V149.28H150.279C149.359 149.28 148.612 149.547 148.039 150.08C147.479 150.613 147.199 151.313 147.199 152.18V156.64H151.199V158H142.579V156.64ZM159.211 158.24C158.465 158.24 157.791 158.113 157.191 157.86C156.605 157.607 156.098 157.247 155.671 156.78C155.258 156.3 154.938 155.733 154.711 155.08C154.485 154.413 154.371 153.673 154.371 152.86C154.371 152.033 154.485 151.287 154.711 150.62C154.951 149.953 155.278 149.387 155.691 148.92C156.105 148.44 156.598 148.073 157.171 147.82C157.758 147.567 158.405 147.44 159.111 147.44C159.805 147.44 160.431 147.567 160.991 147.82C161.565 148.073 162.051 148.427 162.451 148.88C162.851 149.32 163.158 149.847 163.371 150.46C163.585 151.073 163.691 151.747 163.691 152.48V153.24H156.051V153.72C156.051 154.173 156.125 154.593 156.271 154.98C156.418 155.367 156.625 155.7 156.891 155.98C157.171 156.26 157.505 156.48 157.891 156.64C158.291 156.787 158.731 156.86 159.211 156.86C159.905 156.86 160.505 156.7 161.011 156.38C161.518 156.06 161.905 155.62 162.171 155.06L163.351 155.86C163.045 156.553 162.531 157.127 161.811 157.58C161.105 158.02 160.238 158.24 159.211 158.24ZM159.111 148.76C158.671 148.76 158.265 148.84 157.891 149C157.518 149.16 157.191 149.38 156.911 149.66C156.645 149.94 156.431 150.273 156.271 150.66C156.125 151.033 156.051 151.447 156.051 151.9V152.04H161.971V151.82C161.971 151.367 161.898 150.953 161.751 150.58C161.618 150.207 161.425 149.887 161.171 149.62C160.931 149.34 160.631 149.127 160.271 148.98C159.925 148.833 159.538 148.76 159.111 148.76ZM171.143 158.24C170.063 158.24 169.13 158.06 168.343 157.7C167.57 157.327 166.91 156.833 166.363 156.22L167.443 155.28C167.937 155.8 168.477 156.2 169.063 156.48C169.65 156.76 170.357 156.9 171.183 156.9C171.983 156.9 172.637 156.76 173.143 156.48C173.663 156.187 173.923 155.733 173.923 155.12C173.923 154.853 173.87 154.633 173.763 154.46C173.67 154.273 173.537 154.127 173.363 154.02C173.19 153.913 172.997 153.833 172.783 153.78C172.57 153.713 172.343 153.66 172.103 153.62L170.483 153.38C170.123 153.327 169.73 153.253 169.303 153.16C168.89 153.067 168.51 152.92 168.163 152.72C167.817 152.507 167.523 152.227 167.283 151.88C167.057 151.533 166.943 151.08 166.943 150.52C166.943 150 167.043 149.553 167.243 149.18C167.457 148.793 167.75 148.473 168.123 148.22C168.497 147.953 168.937 147.76 169.443 147.64C169.95 147.507 170.503 147.44 171.103 147.44C172.037 147.44 172.843 147.587 173.523 147.88C174.217 148.173 174.81 148.58 175.303 149.1L174.263 150.08C174.143 149.933 173.99 149.787 173.803 149.64C173.63 149.48 173.41 149.34 173.143 149.22C172.89 149.087 172.59 148.98 172.243 148.9C171.897 148.82 171.497 148.78 171.043 148.78C170.23 148.78 169.603 148.92 169.163 149.2C168.737 149.48 168.523 149.887 168.523 150.42C168.523 150.687 168.57 150.913 168.663 151.1C168.77 151.273 168.91 151.413 169.083 151.52C169.257 151.627 169.45 151.713 169.663 151.78C169.89 151.833 170.117 151.88 170.343 151.92L171.963 152.16C172.337 152.213 172.73 152.287 173.143 152.38C173.557 152.473 173.937 152.627 174.283 152.84C174.63 153.04 174.917 153.313 175.143 153.66C175.383 154.007 175.503 154.46 175.503 155.02C175.503 156.047 175.103 156.84 174.303 157.4C173.517 157.96 172.463 158.24 171.143 158.24ZM183.016 158.24C182.296 158.24 181.642 158.113 181.056 157.86C180.482 157.607 179.989 157.247 179.576 156.78C179.176 156.3 178.869 155.733 178.656 155.08C178.442 154.413 178.336 153.667 178.336 152.84C178.336 152.027 178.442 151.287 178.656 150.62C178.869 149.953 179.176 149.387 179.576 148.92C179.989 148.44 180.482 148.073 181.056 147.82C181.642 147.567 182.296 147.44 183.016 147.44C183.736 147.44 184.382 147.567 184.956 147.82C185.542 148.073 186.036 148.44 186.436 148.92C186.849 149.387 187.162 149.953 187.376 150.62C187.589 151.287 187.696 152.027 187.696 152.84C187.696 153.667 187.589 154.413 187.376 155.08C187.162 155.733 186.849 156.3 186.436 156.78C186.036 157.247 185.542 157.607 184.956 157.86C184.382 158.113 183.736 158.24 183.016 158.24ZM183.016 156.86C183.909 156.86 184.629 156.593 185.176 156.06C185.722 155.527 185.996 154.7 185.996 153.58V152.1C185.996 150.98 185.722 150.153 185.176 149.62C184.629 149.087 183.909 148.82 183.016 148.82C182.122 148.82 181.402 149.087 180.856 149.62C180.309 150.153 180.036 150.98 180.036 152.1V153.58C180.036 154.7 180.309 155.527 180.856 156.06C181.402 156.593 182.122 156.86 183.016 156.86ZM190.608 156.64H194.208V144.56H190.608V143.2H195.808V156.64H199.408V158H190.608V156.64ZM209.44 156.32H209.36C209.253 156.573 209.12 156.82 208.96 157.06C208.8 157.287 208.6 157.487 208.36 157.66C208.133 157.833 207.86 157.973 207.54 158.08C207.22 158.187 206.847 158.24 206.42 158.24C205.34 158.24 204.473 157.9 203.82 157.22C203.167 156.527 202.84 155.553 202.84 154.3V147.68H204.44V154.02C204.44 154.967 204.647 155.673 205.06 156.14C205.473 156.593 206.08 156.82 206.88 156.82C207.2 156.82 207.513 156.78 207.82 156.7C208.127 156.62 208.4 156.5 208.64 156.34C208.88 156.18 209.073 155.98 209.22 155.74C209.367 155.487 209.44 155.187 209.44 154.84V147.68H211.04V158H209.44V156.32ZM219.492 158C218.706 158 218.126 157.78 217.752 157.34C217.392 156.9 217.212 156.333 217.212 155.64V149.04H213.772V147.68H216.332C216.679 147.68 216.919 147.613 217.052 147.48C217.199 147.333 217.272 147.087 217.272 146.74V144.04H218.812V147.68H223.512V149.04H218.812V156.64H223.512V158H219.492ZM231.164 158.24C230.418 158.24 229.744 158.113 229.144 157.86C228.558 157.607 228.051 157.247 227.624 156.78C227.211 156.3 226.891 155.733 226.664 155.08C226.438 154.413 226.324 153.673 226.324 152.86C226.324 152.033 226.438 151.287 226.664 150.62C226.904 149.953 227.231 149.387 227.644 148.92C228.058 148.44 228.551 148.073 229.124 147.82C229.711 147.567 230.358 147.44 231.064 147.44C231.758 147.44 232.384 147.567 232.944 147.82C233.518 148.073 234.004 148.427 234.404 148.88C234.804 149.32 235.111 149.847 235.324 150.46C235.538 151.073 235.644 151.747 235.644 152.48V153.24H228.004V153.72C228.004 154.173 228.078 154.593 228.224 154.98C228.371 155.367 228.578 155.7 228.844 155.98C229.124 156.26 229.458 156.48 229.844 156.64C230.244 156.787 230.684 156.86 231.164 156.86C231.858 156.86 232.458 156.7 232.964 156.38C233.471 156.06 233.858 155.62 234.124 155.06L235.304 155.86C234.998 156.553 234.484 157.127 233.764 157.58C233.058 158.02 232.191 158.24 231.164 158.24ZM231.064 148.76C230.624 148.76 230.218 148.84 229.844 149C229.471 149.16 229.144 149.38 228.864 149.66C228.598 149.94 228.384 150.273 228.224 150.66C228.078 151.033 228.004 151.447 228.004 151.9V152.04H233.924V151.82C233.924 151.367 233.851 150.953 233.704 150.58C233.571 150.207 233.378 149.887 233.124 149.62C232.884 149.34 232.584 149.127 232.224 148.98C231.878 148.833 231.491 148.76 231.064 148.76ZM242.977 158.18C242.43 158.18 242.043 158.067 241.817 157.84C241.603 157.613 241.497 157.327 241.497 156.98V156.62C241.497 156.273 241.603 155.987 241.817 155.76C242.043 155.533 242.43 155.42 242.977 155.42C243.523 155.42 243.903 155.533 244.117 155.76C244.343 155.987 244.457 156.273 244.457 156.62V156.98C244.457 157.327 244.343 157.613 244.117 157.84C243.903 158.067 243.523 158.18 242.977 158.18ZM267.461 158C266.674 158 266.094 157.78 265.721 157.34C265.361 156.9 265.181 156.333 265.181 155.64V149.04H261.741V147.68H264.301C264.648 147.68 264.888 147.613 265.021 147.48C265.168 147.333 265.241 147.087 265.241 146.74V144.04H266.781V147.68H271.481V149.04H266.781V156.64H271.481V158H267.461ZM278.953 158.24C278.233 158.24 277.58 158.113 276.993 157.86C276.42 157.607 275.926 157.247 275.513 156.78C275.113 156.3 274.806 155.733 274.593 155.08C274.38 154.413 274.273 153.667 274.273 152.84C274.273 152.027 274.38 151.287 274.593 150.62C274.806 149.953 275.113 149.387 275.513 148.92C275.926 148.44 276.42 148.073 276.993 147.82C277.58 147.567 278.233 147.44 278.953 147.44C279.673 147.44 280.32 147.567 280.893 147.82C281.48 148.073 281.973 148.44 282.373 148.92C282.786 149.387 283.1 149.953 283.313 150.62C283.526 151.287 283.633 152.027 283.633 152.84C283.633 153.667 283.526 154.413 283.313 155.08C283.1 155.733 282.786 156.3 282.373 156.78C281.973 157.247 281.48 157.607 280.893 157.86C280.32 158.113 279.673 158.24 278.953 158.24ZM278.953 156.86C279.846 156.86 280.566 156.593 281.113 156.06C281.66 155.527 281.933 154.7 281.933 153.58V152.1C281.933 150.98 281.66 150.153 281.113 149.62C280.566 149.087 279.846 148.82 278.953 148.82C278.06 148.82 277.34 149.087 276.793 149.62C276.246 150.153 275.973 150.98 275.973 152.1V153.58C275.973 154.7 276.246 155.527 276.793 156.06C277.34 156.593 278.06 156.86 278.953 156.86ZM297.538 147.68H298.958L300.138 156.6H300.318L302.077 147.68H303.838L305.598 156.6H305.778L306.958 147.68H308.338L306.758 158H304.678L303.038 149.36H302.878L301.198 158H299.118L297.538 147.68ZM318.83 158C318.203 158 317.756 157.84 317.49 157.52C317.223 157.2 317.056 156.8 316.99 156.32H316.89C316.663 156.92 316.296 157.393 315.79 157.74C315.296 158.073 314.63 158.24 313.79 158.24C312.71 158.24 311.85 157.96 311.21 157.4C310.57 156.84 310.25 156.073 310.25 155.1C310.25 154.14 310.596 153.4 311.29 152.88C311.996 152.36 313.13 152.1 314.69 152.1H316.89V151.08C316.89 150.32 316.676 149.753 316.25 149.38C315.823 148.993 315.216 148.8 314.43 148.8C313.736 148.8 313.17 148.94 312.73 149.22C312.29 149.487 311.936 149.853 311.67 150.32L310.59 149.52C310.723 149.253 310.903 148.993 311.13 148.74C311.356 148.487 311.636 148.267 311.97 148.08C312.303 147.88 312.683 147.727 313.11 147.62C313.536 147.5 314.01 147.44 314.53 147.44C315.743 147.44 316.703 147.747 317.41 148.36C318.13 148.973 318.49 149.827 318.49 150.92V156.6H319.93V158H318.83ZM314.07 156.9C314.483 156.9 314.856 156.853 315.19 156.76C315.536 156.653 315.836 156.52 316.09 156.36C316.343 156.187 316.536 155.987 316.67 155.76C316.816 155.52 316.89 155.267 316.89 155V153.3H314.69C313.73 153.3 313.03 153.433 312.59 153.7C312.15 153.967 311.93 154.353 311.93 154.86V155.28C311.93 155.813 312.116 156.22 312.49 156.5C312.876 156.767 313.403 156.9 314.07 156.9ZM325.902 158L322.202 147.68H323.822L325.302 152L326.902 156.66H326.982L328.582 152L330.062 147.68H331.642L327.942 158H325.902ZM339.094 158.24C338.347 158.24 337.674 158.113 337.074 157.86C336.487 157.607 335.981 157.247 335.554 156.78C335.141 156.3 334.821 155.733 334.594 155.08C334.367 154.413 334.254 153.673 334.254 152.86C334.254 152.033 334.367 151.287 334.594 150.62C334.834 149.953 335.161 149.387 335.574 148.92C335.987 148.44 336.481 148.073 337.054 147.82C337.641 147.567 338.287 147.44 338.994 147.44C339.687 147.44 340.314 147.567 340.874 147.82C341.447 148.073 341.934 148.427 342.334 148.88C342.734 149.32 343.041 149.847 343.254 150.46C343.467 151.073 343.574 151.747 343.574 152.48V153.24H335.934V153.72C335.934 154.173 336.007 154.593 336.154 154.98C336.301 155.367 336.507 155.7 336.774 155.98C337.054 156.26 337.387 156.48 337.774 156.64C338.174 156.787 338.614 156.86 339.094 156.86C339.787 156.86 340.387 156.7 340.894 156.38C341.401 156.06 341.787 155.62 342.054 155.06L343.234 155.86C342.927 156.553 342.414 157.127 341.694 157.58C340.987 158.02 340.121 158.24 339.094 158.24ZM338.994 148.76C338.554 148.76 338.147 148.84 337.774 149C337.401 149.16 337.074 149.38 336.794 149.66C336.527 149.94 336.314 150.273 336.154 150.66C336.007 151.033 335.934 151.447 335.934 151.9V152.04H341.854V151.82C341.854 151.367 341.781 150.953 341.634 150.58C341.501 150.207 341.307 149.887 341.054 149.62C340.814 149.34 340.514 149.127 340.154 148.98C339.807 148.833 339.421 148.76 338.994 148.76ZM346.446 156.64H349.466V149.04H346.446V147.68H351.066V150.28H351.166C351.38 149.467 351.78 148.833 352.366 148.38C352.966 147.913 353.726 147.68 354.646 147.68H356.086V149.28H354.146C353.226 149.28 352.48 149.547 351.906 150.08C351.346 150.613 351.066 151.313 351.066 152.18V156.64H355.066V158H346.446V156.64Z" fill="#CAD3F5"/>
<path d="M30.1133 180.28C29.2199 180.28 28.5866 180.08 28.2133 179.68C27.8533 179.28 27.6733 178.787 27.6733 178.2V177.64C27.6733 177.053 27.8533 176.56 28.2133 176.16C28.5866 175.76 29.2199 175.56 30.1133 175.56C31.0066 175.56 31.6333 175.76 31.9933 176.16C32.3666 176.56 32.5533 177.053 32.5533 177.64V178.2C32.5533 178.787 32.3666 179.28 31.9933 179.68C31.6333 180.08 31.0066 180.28 30.1133 180.28ZM51.9494 171.5V184H50.2694V171.5H45.6094V170.04H56.6094V171.5H51.9494ZM63.1016 184.24C62.3816 184.24 61.7282 184.113 61.1416 183.86C60.5682 183.607 60.0749 183.247 59.6616 182.78C59.2616 182.3 58.9549 181.733 58.7416 181.08C58.5282 180.413 58.4216 179.667 58.4216 178.84C58.4216 178.027 58.5282 177.287 58.7416 176.62C58.9549 175.953 59.2616 175.387 59.6616 174.92C60.0749 174.44 60.5682 174.073 61.1416 173.82C61.7282 173.567 62.3816 173.44 63.1016 173.44C63.8216 173.44 64.4682 173.567 65.0416 173.82C65.6282 174.073 66.1216 174.44 66.5216 174.92C66.9349 175.387 67.2482 175.953 67.4616 176.62C67.6749 177.287 67.7816 178.027 67.7816 178.84C67.7816 179.667 67.6749 180.413 67.4616 181.08C67.2482 181.733 66.9349 182.3 66.5216 182.78C66.1216 183.247 65.6282 183.607 65.0416 183.86C64.4682 184.113 63.8216 184.24 63.1016 184.24ZM63.1016 182.86C63.9949 182.86 64.7149 182.593 65.2616 182.06C65.8082 181.527 66.0816 180.7 66.0816 179.58V178.1C66.0816 176.98 65.8082 176.153 65.2616 175.62C64.7149 175.087 63.9949 174.82 63.1016 174.82C62.2082 174.82 61.4882 175.087 60.9416 175.62C60.3949 176.153 60.1216 176.98 60.1216 178.1V179.58C60.1216 180.7 60.3949 181.527 60.9416 182.06C61.4882 182.593 62.2082 182.86 63.1016 182.86ZM87.4459 184.24C86.6993 184.24 86.0326 184.113 85.4459 183.86C84.8726 183.593 84.3859 183.227 83.9859 182.76C83.5859 182.293 83.2793 181.727 83.0659 181.06C82.8659 180.393 82.7659 179.653 82.7659 178.84C82.7659 178.027 82.8726 177.287 83.0859 176.62C83.2993 175.953 83.6059 175.387 84.0059 174.92C84.4059 174.44 84.8926 174.073 85.4659 173.82C86.0393 173.567 86.6926 173.44 87.4259 173.44C88.4259 173.44 89.2393 173.66 89.8659 174.1C90.4926 174.54 90.9526 175.113 91.2459 175.82L89.9659 176.5C89.7793 175.967 89.4659 175.553 89.0259 175.26C88.5993 174.967 88.0659 174.82 87.4259 174.82C86.9593 174.82 86.5393 174.9 86.1659 175.06C85.8059 175.207 85.4993 175.42 85.2459 175.7C84.9926 175.98 84.7993 176.313 84.6659 176.7C84.5459 177.087 84.4859 177.507 84.4859 177.96V179.72C84.4859 180.173 84.5459 180.593 84.6659 180.98C84.7993 181.367 84.9926 181.7 85.2459 181.98C85.4993 182.26 85.8126 182.48 86.1859 182.64C86.5593 182.787 86.9859 182.86 87.4659 182.86C88.1593 182.86 88.7326 182.7 89.1859 182.38C89.6393 182.06 89.9993 181.62 90.2659 181.06L91.4059 181.84C91.0993 182.533 90.6193 183.107 89.9659 183.56C89.3259 184.013 88.4859 184.24 87.4459 184.24ZM102.978 184C102.351 184 101.905 183.84 101.638 183.52C101.371 183.2 101.205 182.8 101.138 182.32H101.038C100.811 182.92 100.445 183.393 99.9381 183.74C99.4448 184.073 98.7781 184.24 97.9381 184.24C96.8581 184.24 95.9981 183.96 95.3581 183.4C94.7181 182.84 94.3981 182.073 94.3981 181.1C94.3981 180.14 94.7448 179.4 95.4381 178.88C96.1448 178.36 97.2781 178.1 98.8381 178.1H101.038V177.08C101.038 176.32 100.825 175.753 100.398 175.38C99.9715 174.993 99.3648 174.8 98.5781 174.8C97.8848 174.8 97.3181 174.94 96.8781 175.22C96.4381 175.487 96.0848 175.853 95.8181 176.32L94.7381 175.52C94.8715 175.253 95.0515 174.993 95.2781 174.74C95.5048 174.487 95.7848 174.267 96.1181 174.08C96.4515 173.88 96.8315 173.727 97.2581 173.62C97.6848 173.5 98.1581 173.44 98.6781 173.44C99.8915 173.44 100.851 173.747 101.558 174.36C102.278 174.973 102.638 175.827 102.638 176.92V182.6H104.078V184H102.978ZM98.2181 182.9C98.6315 182.9 99.0048 182.853 99.3381 182.76C99.6848 182.653 99.9848 182.52 100.238 182.36C100.491 182.187 100.685 181.987 100.818 181.76C100.965 181.52 101.038 181.267 101.038 181V179.3H98.8381C97.8781 179.3 97.1781 179.433 96.7381 179.7C96.2981 179.967 96.0781 180.353 96.0781 180.86V181.28C96.0781 181.813 96.2648 182.22 96.6381 182.5C97.0248 182.767 97.5515 182.9 98.2181 182.9ZM113.51 182.32H113.43C113.324 182.573 113.19 182.82 113.03 183.06C112.87 183.287 112.67 183.487 112.43 183.66C112.204 183.833 111.93 183.973 111.61 184.08C111.29 184.187 110.917 184.24 110.49 184.24C109.41 184.24 108.544 183.9 107.89 183.22C107.237 182.527 106.91 181.553 106.91 180.3V173.68H108.51V180.02C108.51 180.967 108.717 181.673 109.13 182.14C109.544 182.593 110.15 182.82 110.95 182.82C111.27 182.82 111.584 182.78 111.89 182.7C112.197 182.62 112.47 182.5 112.71 182.34C112.95 182.18 113.144 181.98 113.29 181.74C113.437 181.487 113.51 181.187 113.51 180.84V173.68H115.11V184H113.51V182.32ZM123.183 184.24C122.103 184.24 121.169 184.06 120.383 183.7C119.609 183.327 118.949 182.833 118.403 182.22L119.483 181.28C119.976 181.8 120.516 182.2 121.103 182.48C121.689 182.76 122.396 182.9 123.223 182.9C124.023 182.9 124.676 182.76 125.183 182.48C125.703 182.187 125.963 181.733 125.963 181.12C125.963 180.853 125.909 180.633 125.803 180.46C125.709 180.273 125.576 180.127 125.403 180.02C125.229 179.913 125.036 179.833 124.823 179.78C124.609 179.713 124.383 179.66 124.143 179.62L122.523 179.38C122.163 179.327 121.769 179.253 121.343 179.16C120.929 179.067 120.549 178.92 120.203 178.72C119.856 178.507 119.563 178.227 119.323 177.88C119.096 177.533 118.983 177.08 118.983 176.52C118.983 176 119.083 175.553 119.283 175.18C119.496 174.793 119.789 174.473 120.163 174.22C120.536 173.953 120.976 173.76 121.483 173.64C121.989 173.507 122.543 173.44 123.143 173.44C124.076 173.44 124.883 173.587 125.563 173.88C126.256 174.173 126.849 174.58 127.342 175.1L126.303 176.08C126.183 175.933 126.029 175.787 125.843 175.64C125.669 175.48 125.449 175.34 125.183 175.22C124.929 175.087 124.629 174.98 124.283 174.9C123.936 174.82 123.536 174.78 123.083 174.78C122.269 174.78 121.643 174.92 121.203 175.2C120.776 175.48 120.563 175.887 120.563 176.42C120.563 176.687 120.609 176.913 120.703 177.1C120.809 177.273 120.949 177.413 121.123 177.52C121.296 177.627 121.489 177.713 121.703 177.78C121.929 177.833 122.156 177.88 122.383 177.92L124.003 178.16C124.376 178.213 124.769 178.287 125.183 178.38C125.596 178.473 125.976 178.627 126.323 178.84C126.669 179.04 126.956 179.313 127.183 179.66C127.423 180.007 127.543 180.46 127.543 181.02C127.543 182.047 127.143 182.84 126.343 183.4C125.556 183.96 124.503 184.24 123.183 184.24ZM135.235 184.24C134.488 184.24 133.815 184.113 133.215 183.86C132.628 183.607 132.121 183.247 131.695 182.78C131.281 182.3 130.961 181.733 130.735 181.08C130.508 180.413 130.395 179.673 130.395 178.86C130.395 178.033 130.508 177.287 130.735 176.62C130.975 175.953 131.301 175.387 131.715 174.92C132.128 174.44 132.621 174.073 133.195 173.82C133.781 173.567 134.428 173.44 135.135 173.44C135.828 173.44 136.455 173.567 137.015 173.82C137.588 174.073 138.075 174.427 138.475 174.88C138.875 175.32 139.181 175.847 139.395 176.46C139.608 177.073 139.715 177.747 139.715 178.48V179.24H132.075V179.72C132.075 180.173 132.148 180.593 132.295 180.98C132.441 181.367 132.648 181.7 132.915 181.98C133.195 182.26 133.528 182.48 133.915 182.64C134.315 182.787 134.755 182.86 135.235 182.86C135.928 182.86 136.528 182.7 137.035 182.38C137.541 182.06 137.928 181.62 138.195 181.06L139.375 181.86C139.068 182.553 138.555 183.127 137.835 183.58C137.128 184.02 136.261 184.24 135.235 184.24ZM135.135 174.76C134.695 174.76 134.288 174.84 133.915 175C133.541 175.16 133.215 175.38 132.935 175.66C132.668 175.94 132.455 176.273 132.295 176.66C132.148 177.033 132.075 177.447 132.075 177.9V178.04H137.995V177.82C137.995 177.367 137.921 176.953 137.775 176.58C137.641 176.207 137.448 175.887 137.195 175.62C136.955 175.34 136.655 175.127 136.295 174.98C135.948 174.833 135.561 174.76 135.135 174.76ZM159.539 184C158.752 184 158.172 183.78 157.799 183.34C157.439 182.9 157.259 182.333 157.259 181.64V175.04H153.819V173.68H156.379C156.726 173.68 156.966 173.613 157.099 173.48C157.246 173.333 157.319 173.087 157.319 172.74V170.04H158.859V173.68H163.559V175.04H158.859V182.64H163.559V184H159.539ZM171.031 184.24C170.311 184.24 169.658 184.113 169.071 183.86C168.498 183.607 168.005 183.247 167.591 182.78C167.191 182.3 166.885 181.733 166.671 181.08C166.458 180.413 166.351 179.667 166.351 178.84C166.351 178.027 166.458 177.287 166.671 176.62C166.885 175.953 167.191 175.387 167.591 174.92C168.005 174.44 168.498 174.073 169.071 173.82C169.658 173.567 170.311 173.44 171.031 173.44C171.751 173.44 172.398 173.567 172.971 173.82C173.558 174.073 174.051 174.44 174.451 174.92C174.865 175.387 175.178 175.953 175.391 176.62C175.605 177.287 175.711 178.027 175.711 178.84C175.711 179.667 175.605 180.413 175.391 181.08C175.178 181.733 174.865 182.3 174.451 182.78C174.051 183.247 173.558 183.607 172.971 183.86C172.398 184.113 171.751 184.24 171.031 184.24ZM171.031 182.86C171.925 182.86 172.645 182.593 173.191 182.06C173.738 181.527 174.011 180.7 174.011 179.58V178.1C174.011 176.98 173.738 176.153 173.191 175.62C172.645 175.087 171.925 174.82 171.031 174.82C170.138 174.82 169.418 175.087 168.871 175.62C168.325 176.153 168.051 176.98 168.051 178.1V179.58C168.051 180.7 168.325 181.527 168.871 182.06C169.418 182.593 170.138 182.86 171.031 182.86ZM193.996 184L190.296 173.68H191.916L193.396 178L194.996 182.66H195.076L196.676 178L198.156 173.68H199.736L196.036 184H193.996ZM210.908 184C210.281 184 209.834 183.84 209.568 183.52C209.301 183.2 209.134 182.8 209.068 182.32H208.968C208.741 182.92 208.374 183.393 207.868 183.74C207.374 184.073 206.708 184.24 205.868 184.24C204.788 184.24 203.928 183.96 203.288 183.4C202.648 182.84 202.328 182.073 202.328 181.1C202.328 180.14 202.674 179.4 203.368 178.88C204.074 178.36 205.208 178.1 206.768 178.1H208.968V177.08C208.968 176.32 208.754 175.753 208.328 175.38C207.901 174.993 207.294 174.8 206.508 174.8C205.814 174.8 205.248 174.94 204.808 175.22C204.368 175.487 204.014 175.853 203.748 176.32L202.668 175.52C202.801 175.253 202.981 174.993 203.208 174.74C203.434 174.487 203.714 174.267 204.048 174.08C204.381 173.88 204.761 173.727 205.188 173.62C205.614 173.5 206.088 173.44 206.608 173.44C207.821 173.44 208.781 173.747 209.488 174.36C210.208 174.973 210.568 175.827 210.568 176.92V182.6H212.008V184H210.908ZM206.148 182.9C206.561 182.9 206.934 182.853 207.268 182.76C207.614 182.653 207.914 182.52 208.168 182.36C208.421 182.187 208.614 181.987 208.748 181.76C208.894 181.52 208.968 181.267 208.968 181V179.3H206.768C205.808 179.3 205.108 179.433 204.668 179.7C204.228 179.967 204.008 180.353 204.008 180.86V181.28C204.008 181.813 204.194 182.22 204.568 182.5C204.954 182.767 205.481 182.9 206.148 182.9ZM214.54 182.64H217.56V175.04H214.54V173.68H219.16V176.28H219.26C219.473 175.467 219.873 174.833 220.46 174.38C221.06 173.913 221.82 173.68 222.74 173.68H224.18V175.28H222.24C221.32 175.28 220.573 175.547 220 176.08C219.44 176.613 219.16 177.313 219.16 178.18V182.64H223.16V184H214.54V182.64ZM234.332 173.68H235.932L230.812 186.26C230.692 186.553 230.559 186.807 230.412 187.02C230.266 187.247 230.092 187.427 229.892 187.56C229.692 187.707 229.452 187.813 229.172 187.88C228.892 187.96 228.559 188 228.172 188H226.652V186.64H229.052L230.212 183.8L226.052 173.68H227.692L229.432 178L230.972 181.92H231.052L232.592 178L234.332 173.68ZM255.617 171.4C255.15 171.4 254.823 171.307 254.637 171.12C254.45 170.92 254.357 170.673 254.357 170.38V170.06C254.357 169.767 254.45 169.527 254.637 169.34C254.823 169.14 255.15 169.04 255.617 169.04C256.083 169.04 256.41 169.14 256.597 169.34C256.783 169.527 256.877 169.767 256.877 170.06V170.38C256.877 170.673 256.783 170.92 256.597 171.12C256.41 171.307 256.083 171.4 255.617 171.4ZM251.097 182.64H254.817V175.04H251.097V173.68H256.417V182.64H259.897V184H251.097V182.64ZM262.509 182.64H265.529V175.04H262.509V173.68H267.129V176.28H267.229C267.442 175.467 267.842 174.833 268.429 174.38C269.029 173.913 269.789 173.68 270.709 173.68H272.149V175.28H270.209C269.289 175.28 268.542 175.547 267.969 176.08C267.409 176.613 267.129 177.313 267.129 178.18V182.64H271.129V184H262.509V182.64ZM274.501 182.64H277.521V175.04H274.501V173.68H279.121V176.28H279.221C279.434 175.467 279.834 174.833 280.421 174.38C281.021 173.913 281.781 173.68 282.701 173.68H284.141V175.28H282.201C281.281 175.28 280.534 175.547 279.961 176.08C279.401 176.613 279.121 177.313 279.121 178.18V182.64H283.121V184H274.501V182.64ZM291.133 184.24C290.386 184.24 289.713 184.113 289.113 183.86C288.526 183.607 288.02 183.247 287.593 182.78C287.18 182.3 286.86 181.733 286.633 181.08C286.406 180.413 286.293 179.673 286.293 178.86C286.293 178.033 286.406 177.287 286.633 176.62C286.873 175.953 287.2 175.387 287.613 174.92C288.026 174.44 288.52 174.073 289.093 173.82C289.68 173.567 290.326 173.44 291.033 173.44C291.726 173.44 292.353 173.567 292.913 173.82C293.486 174.073 293.973 174.427 294.373 174.88C294.773 175.32 295.08 175.847 295.293 176.46C295.506 177.073 295.613 177.747 295.613 178.48V179.24H287.973V179.72C287.973 180.173 288.046 180.593 288.193 180.98C288.34 181.367 288.546 181.7 288.813 181.98C289.093 182.26 289.426 182.48 289.813 182.64C290.213 182.787 290.653 182.86 291.133 182.86C291.826 182.86 292.426 182.7 292.933 182.38C293.44 182.06 293.826 181.62 294.093 181.06L295.273 181.86C294.966 182.553 294.453 183.127 293.733 183.58C293.026 184.02 292.16 184.24 291.133 184.24ZM291.033 174.76C290.593 174.76 290.186 174.84 289.813 175C289.44 175.16 289.113 175.38 288.833 175.66C288.566 175.94 288.353 176.273 288.193 176.66C288.046 177.033 287.973 177.447 287.973 177.9V178.04H293.893V177.82C293.893 177.367 293.82 176.953 293.673 176.58C293.54 176.207 293.346 175.887 293.093 175.62C292.853 175.34 292.553 175.127 292.193 174.98C291.846 174.833 291.46 174.76 291.033 174.76ZM308.165 185.18C308.165 186.22 307.732 186.987 306.865 187.48C305.999 187.987 304.699 188.24 302.965 188.24C301.299 188.24 300.099 188.02 299.365 187.58C298.645 187.14 298.285 186.507 298.285 185.68C298.285 185.12 298.432 184.687 298.725 184.38C299.019 184.073 299.432 183.847 299.965 183.7V183.46C299.672 183.313 299.445 183.127 299.285 182.9C299.125 182.673 299.045 182.387 299.045 182.04C299.045 181.507 299.219 181.107 299.565 180.84C299.925 180.573 300.372 180.373 300.905 180.24V180.16C300.265 179.88 299.765 179.467 299.405 178.92C299.059 178.373 298.885 177.733 298.885 177C298.885 176.48 298.979 176 299.165 175.56C299.352 175.12 299.619 174.747 299.965 174.44C300.325 174.12 300.752 173.873 301.245 173.7C301.739 173.527 302.285 173.44 302.885 173.44C303.659 173.44 304.339 173.58 304.925 173.86V173.68C304.925 173.28 305.019 172.947 305.205 172.68C305.392 172.413 305.712 172.28 306.165 172.28H308.065V173.68H305.745V174.38C306.119 174.7 306.405 175.08 306.605 175.52C306.805 175.96 306.905 176.453 306.905 177C306.905 177.52 306.805 178 306.605 178.44C306.419 178.88 306.152 179.26 305.805 179.58C305.459 179.887 305.032 180.127 304.525 180.3C304.032 180.473 303.485 180.56 302.885 180.56C302.712 180.56 302.545 180.553 302.385 180.54C302.225 180.527 302.065 180.507 301.905 180.48C301.745 180.507 301.579 180.553 301.405 180.62C301.232 180.673 301.072 180.753 300.925 180.86C300.779 180.953 300.659 181.067 300.565 181.2C300.472 181.333 300.425 181.487 300.425 181.66C300.425 181.967 300.579 182.173 300.885 182.28C301.192 182.373 301.592 182.42 302.085 182.42H304.365C305.699 182.42 306.665 182.673 307.265 183.18C307.865 183.673 308.165 184.34 308.165 185.18ZM306.665 185.26C306.665 184.847 306.499 184.513 306.165 184.26C305.832 184.02 305.252 183.9 304.425 183.9H300.845C300.152 184.18 299.805 184.647 299.805 185.3C299.805 185.753 299.985 186.14 300.345 186.46C300.705 186.793 301.305 186.96 302.145 186.96H303.705C304.639 186.96 305.365 186.813 305.885 186.52C306.405 186.24 306.665 185.82 306.665 185.26ZM302.885 179.32C303.685 179.32 304.272 179.133 304.645 178.76C305.032 178.387 305.225 177.893 305.225 177.28V176.7C305.225 176.087 305.032 175.6 304.645 175.24C304.272 174.867 303.685 174.68 302.885 174.68C302.085 174.68 301.499 174.867 301.125 175.24C300.752 175.6 300.565 176.087 300.565 176.7V177.28C300.565 177.893 300.752 178.387 301.125 178.76C301.499 179.133 302.085 179.32 302.885 179.32ZM317.378 182.32H317.298C317.191 182.573 317.058 182.82 316.898 183.06C316.738 183.287 316.538 183.487 316.298 183.66C316.071 183.833 315.798 183.973 315.478 184.08C315.158 184.187 314.784 184.24 314.358 184.24C313.278 184.24 312.411 183.9 311.758 183.22C311.104 182.527 310.778 181.553 310.778 180.3V173.68H312.378V180.02C312.378 180.967 312.584 181.673 312.998 182.14C313.411 182.593 314.018 182.82 314.817 182.82C315.138 182.82 315.451 182.78 315.758 182.7C316.064 182.62 316.338 182.5 316.578 182.34C316.818 182.18 317.011 181.98 317.158 181.74C317.304 181.487 317.378 181.187 317.378 180.84V173.68H318.978V184H317.378V182.32ZM322.53 182.64H326.13V170.56H322.53V169.2H327.73V182.64H331.33V184H322.53V182.64ZM342.822 184C342.195 184 341.749 183.84 341.482 183.52C341.215 183.2 341.049 182.8 340.982 182.32H340.882C340.655 182.92 340.289 183.393 339.782 183.74C339.289 184.073 338.622 184.24 337.782 184.24C336.702 184.24 335.842 183.96 335.202 183.4C334.562 182.84 334.242 182.073 334.242 181.1C334.242 180.14 334.589 179.4 335.282 178.88C335.989 178.36 337.122 178.1 338.682 178.1H340.882V177.08C340.882 176.32 340.669 175.753 340.242 175.38C339.815 174.993 339.209 174.8 338.422 174.8C337.729 174.8 337.162 174.94 336.722 175.22C336.282 175.487 335.929 175.853 335.662 176.32L334.582 175.52C334.715 175.253 334.895 174.993 335.122 174.74C335.349 174.487 335.629 174.267 335.962 174.08C336.295 173.88 336.675 173.727 337.102 173.62C337.529 173.5 338.002 173.44 338.522 173.44C339.735 173.44 340.695 173.747 341.402 174.36C342.122 174.973 342.482 175.827 342.482 176.92V182.6H343.922V184H342.822ZM338.062 182.9C338.475 182.9 338.849 182.853 339.182 182.76C339.529 182.653 339.829 182.52 340.082 182.36C340.335 182.187 340.529 181.987 340.662 181.76C340.809 181.52 340.882 181.267 340.882 181V179.3H338.682C337.722 179.3 337.022 179.433 336.582 179.7C336.142 179.967 335.922 180.353 335.922 180.86V181.28C335.922 181.813 336.109 182.22 336.482 182.5C336.869 182.767 337.395 182.9 338.062 182.9ZM346.454 182.64H349.474V175.04H346.454V173.68H351.074V176.28H351.174C351.387 175.467 351.787 174.833 352.374 174.38C352.974 173.913 353.734 173.68 354.654 173.68H356.094V175.28H354.154C353.234 175.28 352.487 175.547 351.914 176.08C351.354 176.613 351.074 177.313 351.074 178.18V182.64H355.074V184H346.454V182.64ZM358.506 182.64H362.106V170.56H358.506V169.2H363.706V182.64H367.306V184H358.506V182.64ZM378.238 173.68H379.838L374.718 186.26C374.598 186.553 374.465 186.807 374.318 187.02C374.172 187.247 373.998 187.427 373.798 187.56C373.598 187.707 373.358 187.813 373.078 187.88C372.798 187.96 372.465 188 372.078 188H370.558V186.64H372.958L374.118 183.8L369.958 173.68H371.598L373.338 178L374.878 181.92H374.958L376.498 178L378.238 173.68Z" fill="#CAD3F5"/>
<rect x="19" y="47" width="159" height="31" rx="4" fill="#363A4F"/>
<path d="M21.2716 72V55.248H32.3836V58.2H24.8716V62.04H31.5916V64.992H24.8716V72H21.2716ZM35.3742 69.24H39.1662V57H35.3742V54.24H42.7182V69.24H46.5102V72H35.3742V69.24ZM57.4208 69.744H57.2768C57.0048 70.448 56.5728 71.048 55.9808 71.544C55.4048 72.04 54.6208 72.288 53.6288 72.288C53.0368 72.288 52.4928 72.192 51.9968 72C51.5008 71.792 51.0768 71.488 50.7248 71.088C50.3728 70.688 50.0928 70.2 49.8848 69.624C49.6928 69.048 49.5968 68.384 49.5968 67.632V59.616H53.1488V67.152C53.1488 68.752 53.8448 69.552 55.2368 69.552C55.5088 69.552 55.7728 69.52 56.0288 69.456C56.3008 69.376 56.5328 69.264 56.7248 69.12C56.9328 68.96 57.1008 68.768 57.2288 68.544C57.3568 68.32 57.4208 68.056 57.4208 67.752V59.616H60.9728V72H57.4208V69.744ZM70.2274 72.288C69.2514 72.288 68.3714 72.144 67.5874 71.856C66.8194 71.552 66.1634 71.12 65.6194 70.56C65.0914 70 64.6834 69.32 64.3954 68.52C64.1074 67.72 63.9634 66.816 63.9634 65.808C63.9634 64.8 64.1074 63.896 64.3954 63.096C64.6834 62.296 65.0914 61.616 65.6194 61.056C66.1634 60.496 66.8194 60.072 67.5874 59.784C68.3714 59.48 69.2434 59.328 70.2034 59.328C71.5634 59.328 72.6514 59.608 73.4674 60.168C74.2994 60.712 74.9314 61.44 75.3634 62.352L72.6274 63.84C72.4034 63.36 72.1074 62.96 71.7394 62.64C71.3874 62.32 70.8754 62.16 70.2034 62.16C69.3874 62.16 68.7554 62.4 68.3074 62.88C67.8754 63.344 67.6594 63.984 67.6594 64.8V66.816C67.6594 67.632 67.8754 68.28 68.3074 68.76C68.7554 69.224 69.4034 69.456 70.2514 69.456C70.9394 69.456 71.4754 69.296 71.8594 68.976C72.2594 68.656 72.5954 68.24 72.8674 67.728L75.5554 69.264C75.1074 70.176 74.4514 70.912 73.5874 71.472C72.7394 72.016 71.6194 72.288 70.2274 72.288ZM85.0741 72C83.7941 72 82.8421 71.664 82.2181 70.992C81.5941 70.32 81.2821 69.464 81.2821 68.424V62.376H77.9221V59.616H80.1061C80.6341 59.616 81.0101 59.512 81.2341 59.304C81.4581 59.096 81.5701 58.712 81.5701 58.152V55.248H84.8341V59.616H89.6581V62.376H84.8341V69.24H89.6581V72H85.0741ZM100.593 69.744H100.449C100.177 70.448 99.7447 71.048 99.1527 71.544C98.5767 72.04 97.7927 72.288 96.8007 72.288C96.2087 72.288 95.6647 72.192 95.1687 72C94.6727 71.792 94.2487 71.488 93.8967 71.088C93.5447 70.688 93.2647 70.2 93.0567 69.624C92.8647 69.048 92.7687 68.384 92.7687 67.632V59.616H96.3207V67.152C96.3207 68.752 97.0167 69.552 98.4087 69.552C98.6807 69.552 98.9447 69.52 99.2007 69.456C99.4727 69.376 99.7047 69.264 99.8967 69.12C100.105 68.96 100.273 68.768 100.401 68.544C100.529 68.32 100.593 68.056 100.593 67.752V59.616H104.145V72H100.593V69.744ZM117.383 72C116.647 72 116.055 71.816 115.607 71.448C115.159 71.064 114.895 70.52 114.815 69.816H114.695C114.471 70.632 114.023 71.248 113.351 71.664C112.695 72.08 111.887 72.288 110.927 72.288C109.727 72.288 108.759 71.968 108.023 71.328C107.303 70.672 106.943 69.76 106.943 68.592C106.943 67.296 107.415 66.336 108.359 65.712C109.303 65.088 110.687 64.776 112.511 64.776H114.503V64.152C114.503 63.416 114.327 62.864 113.975 62.496C113.639 62.112 113.063 61.92 112.247 61.92C111.495 61.92 110.887 62.064 110.423 62.352C109.959 62.64 109.559 63.016 109.223 63.48L107.279 61.752C107.695 61.048 108.343 60.472 109.223 60.024C110.119 59.56 111.263 59.328 112.655 59.328C114.351 59.328 115.671 59.72 116.615 60.504C117.575 61.272 118.055 62.44 118.055 64.008V69.432H119.423V72H117.383ZM112.271 69.96C112.895 69.96 113.423 69.808 113.855 69.504C114.287 69.2 114.503 68.76 114.503 68.184V66.696H112.607C111.151 66.696 110.423 67.184 110.423 68.16V68.64C110.423 69.072 110.591 69.4 110.927 69.624C111.263 69.848 111.711 69.96 112.271 69.96ZM128.246 72C126.966 72 126.014 71.664 125.39 70.992C124.766 70.32 124.454 69.464 124.454 68.424V62.376H121.094V59.616H123.278C123.806 59.616 124.182 59.512 124.406 59.304C124.63 59.096 124.742 58.712 124.742 58.152V55.248H128.006V59.616H132.83V62.376H128.006V69.24H132.83V72H128.246ZM142.445 58.032C141.645 58.032 141.085 57.872 140.765 57.552C140.461 57.216 140.309 56.816 140.309 56.352V55.656C140.309 55.176 140.461 54.776 140.765 54.456C141.085 54.136 141.645 53.976 142.445 53.976C143.245 53.976 143.797 54.136 144.101 54.456C144.421 54.776 144.581 55.176 144.581 55.656V56.352C144.581 56.816 144.421 57.216 144.101 57.552C143.797 57.872 143.245 58.032 142.445 58.032ZM136.733 69.24H140.669V62.376H136.733V59.616H144.221V69.24H147.869V72H136.733V69.24ZM150.427 72V59.616H153.979V61.872H154.123C154.267 61.52 154.443 61.192 154.651 60.888C154.859 60.584 155.107 60.32 155.395 60.096C155.699 59.856 156.043 59.672 156.427 59.544C156.827 59.4 157.275 59.328 157.771 59.328C158.363 59.328 158.907 59.432 159.403 59.64C159.899 59.832 160.323 60.128 160.675 60.528C161.027 60.928 161.299 61.416 161.491 61.992C161.699 62.568 161.803 63.232 161.803 63.984V72H158.251V64.464C158.251 62.864 157.555 62.064 156.163 62.064C155.891 62.064 155.619 62.104 155.347 62.184C155.091 62.248 154.859 62.36 154.651 62.52C154.443 62.664 154.275 62.848 154.147 63.072C154.035 63.296 153.979 63.56 153.979 63.864V72H150.427ZM177.25 73.248C177.25 74.56 176.698 75.528 175.594 76.152C174.49 76.776 172.754 77.088 170.386 77.088C169.202 77.088 168.226 77.016 167.458 76.872C166.69 76.744 166.074 76.552 165.61 76.296C165.162 76.04 164.842 75.736 164.65 75.384C164.474 75.032 164.386 74.648 164.386 74.232C164.386 73.528 164.594 72.992 165.01 72.624C165.426 72.272 166.01 72 166.762 71.808V71.664C166.234 71.504 165.81 71.28 165.49 70.992C165.186 70.688 165.034 70.264 165.034 69.72C165.034 69.112 165.234 68.664 165.634 68.376C166.05 68.088 166.594 67.864 167.266 67.704V67.56C166.53 67.208 165.954 66.712 165.538 66.072C165.138 65.432 164.938 64.656 164.938 63.744C164.938 63.024 165.066 62.392 165.322 61.848C165.578 61.288 165.938 60.824 166.402 60.456C166.882 60.088 167.45 59.808 168.106 59.616C168.762 59.424 169.498 59.328 170.314 59.328C171.098 59.328 171.826 59.416 172.498 59.592V58.92C172.498 58.44 172.666 58.04 173.002 57.72C173.338 57.4 173.802 57.24 174.394 57.24H176.578V59.832H173.602V60.048C174.274 60.4 174.794 60.888 175.162 61.512C175.546 62.12 175.738 62.864 175.738 63.744C175.738 64.464 175.61 65.096 175.354 65.64C175.098 66.184 174.73 66.648 174.25 67.032C173.77 67.4 173.194 67.68 172.522 67.872C171.866 68.064 171.13 68.16 170.314 68.16C169.946 68.16 169.594 68.144 169.258 68.112C168.922 68.064 168.602 68 168.298 67.92C168.122 68.016 167.97 68.136 167.842 68.28C167.73 68.424 167.674 68.608 167.674 68.832C167.674 69.024 167.722 69.176 167.818 69.288C167.914 69.4 168.042 69.488 168.202 69.552C168.378 69.6 168.578 69.632 168.802 69.648C169.026 69.664 169.258 69.672 169.498 69.672H172.33C173.21 69.672 173.962 69.76 174.586 69.936C175.21 70.112 175.722 70.36 176.122 70.68C176.522 71 176.81 71.376 176.986 71.808C177.162 72.24 177.25 72.72 177.25 73.248ZM173.89 73.512C173.89 73.192 173.762 72.936 173.506 72.744C173.25 72.568 172.762 72.48 172.042 72.48H167.794C167.474 72.752 167.314 73.088 167.314 73.488C167.314 73.872 167.474 74.184 167.794 74.424C168.13 74.68 168.69 74.808 169.474 74.808H171.562C172.378 74.808 172.97 74.696 173.338 74.472C173.706 74.248 173.89 73.928 173.89 73.512ZM170.314 65.904C171.034 65.904 171.554 65.728 171.874 65.376C172.21 65.024 172.378 64.576 172.378 64.032V63.456C172.378 62.912 172.21 62.464 171.874 62.112C171.554 61.76 171.034 61.584 170.314 61.584C169.61 61.584 169.098 61.76 168.778 62.112C168.458 62.464 168.298 62.912 168.298 63.456V64.032C168.298 64.576 168.458 65.024 168.778 65.376C169.098 65.728 169.61 65.904 170.314 65.904Z" fill="#F9E2AF"/>
</svg>
